<svg xmlns="http://www.w3.org/2000/svg" viewBox="0 0 32 32"><defs><linearGradient id="a" x1="19.265" x2="4.494" y1="1.885" y2="27.47" gradientUnits="userSpaceOnUse"><stop offset="0" stop-color="#e63a00"/><stop offset=".031" stop-color="#e63a00" stop-opacity=".883"/><stop offset=".099" stop-color="#e63a00" stop-opacity=".652"/><stop offset=".168" stop-color="#e63a00" stop-opacity=".452"/><stop offset=".236" stop-color="#e63a00" stop-opacity=".289"/><stop offset=".304" stop-color="#e63a00" stop-opacity=".163"/><stop offset=".371" stop-color="#e63a00" stop-opacity=".072"/><stop offset=".437" stop-color="#e63a00" stop-opacity=".018"/><stop offset=".5" stop-color="#e63a00" stop-opacity="0"/></linearGradient><linearGradient id="b" x1="2" x2="16" y1="16" y2="16" gradientUnits="userSpaceOnUse"><stop offset=".722" stop-color="#fff"/><stop offset="1" stop-color="#333"/></linearGradient><linearGradient id="c" x1="8.18" x2="23.82" y1="15.999" y2="15.999" gradientUnits="userSpaceOnUse"><stop offset="0" stop-color="gray"/><stop offset=".05" stop-color="#989898"/><stop offset=".142" stop-color="#bdbdbd"/><stop offset=".234" stop-color="#dadada"/><stop offset=".324" stop-color="#eee"/><stop offset=".414" stop-color="#fbfbfb"/><stop offset=".5" stop-color="#fff"/><stop offset=".564" stop-color="#fbfbfb"/><stop offset=".63" stop-color="#eee"/><stop offset=".697" stop-color="#dadada"/><stop offset=".765" stop-color="#bdbdbd"/><stop offset=".833" stop-color="#979797"/><stop offset=".902" stop-color="#696969"/><stop offset=".97" stop-color="#343434"/><stop offset="1" stop-color="#1a1a1a"/></linearGradient><radialGradient id="d" cx="-20.399" cy="21.959" r="25.162" gradientTransform="matrix(1.0825 0 0 1.07247 45.712 .008)" gradientUnits="userSpaceOnUse"><stop offset="0" stop-color="#379be8"/><stop offset=".515" stop-color="#006fde"/></radialGradient><mask id="e" width="14" height="32" x="2" y="0" maskUnits="userSpaceOnUse"><path fill="url(#a)" d="M15.545.095L4.115 5.053A3.5 3.5 0 0 0 2 8.26V26.03l13.545 5.876A1.144 1.144 0 0 0 16 32V0a1.144 1.144 0 0 0-.455.095z"/><path fill="url(#b)" d="M15.545.095L4.115 5.053A3.5 3.5 0 0 0 2 8.26V26.03l13.545 5.876A1.144 1.144 0 0 0 16 32V0a1.144 1.144 0 0 0-.455.095z"/></mask><linearGradient id="f" x1="19.275" x2="4.506" y1="1.892" y2="27.473" gradientUnits="userSpaceOnUse"><stop offset=".004" stop-color="#08f"/><stop offset=".059" stop-color="#0a8dff" stop-opacity=".797"/><stop offset=".123" stop-color="#1592ff" stop-opacity=".588"/><stop offset=".188" stop-color="#1e96ff" stop-opacity=".408"/><stop offset=".253" stop-color="#269aff" stop-opacity=".261"/><stop offset=".316" stop-color="#2c9cff" stop-opacity=".147"/><stop offset=".38" stop-color="#309eff" stop-opacity=".065"/><stop offset=".442" stop-color="#32a0ff" stop-opacity=".016"/><stop offset=".501" stop-color="#33a0ff" stop-opacity="0"/></linearGradient><mask id="g" width="15.64" height="32" x="8.18" y="0" maskUnits="userSpaceOnUse"><path fill="url(#c)" d="M16.853 31.618l6.089-6.87a3.482 3.482 0 0 0 .878-2.31V3.29L16.455.095a1.144 1.144 0 0 0-.91 0L8.18 3.29v19.148a3.482 3.482 0 0 0 .878 2.31l6.09 6.87a1.146 1.146 0 0 0 1.705 0z"/></mask><linearGradient id="h" x1="16" x2="16" y2="32" gradientUnits="userSpaceOnUse"><stop offset=".003" stop-color="#0a67c4" stop-opacity="0"/><stop offset=".08" stop-color="#0a67c4" stop-opacity=".021"/><stop offset=".16" stop-color="#0a67c4" stop-opacity=".085"/><stop offset=".241" stop-color="#0a67c4" stop-opacity=".191"/><stop offset=".323" stop-color="#0a67c4" stop-opacity=".339"/><stop offset=".405" stop-color="#0a67c4" stop-opacity=".53"/><stop offset=".487" stop-color="#0a67c4" stop-opacity=".76"/><stop offset=".5" stop-color="#0a67c4" stop-opacity=".8"/><stop offset=".589" stop-color="#0a67c4" stop-opacity=".779"/><stop offset=".682" stop-color="#0a67c4" stop-opacity=".715"/><stop offset=".776" stop-color="#0a67c4" stop-opacity=".609"/><stop offset=".871" stop-color="#0a67c4" stop-opacity=".461"/><stop offset=".966" stop-color="#0a67c4" stop-opacity=".273"/><stop offset=".998" stop-color="#0a67c4" stop-opacity=".2"/></linearGradient></defs><path fill="url(#d)" d="M2 8.36v17.666l13.548 5.876a1.137 1.137 0 0 0 .902-.004l11.358-4.925A3.64 3.64 0 0 0 30 23.633V5.97L16.452.094a1.146 1.146 0 0 0-.905 0L4.192 5.02A3.64 3.64 0 0 0 2 8.36z"/><g mask="url(#e)"><path fill="url(#f)" d="M16 0a1.134 1.134 0 0 0-.453.094L4.192 5.02A3.625 3.625 0 0 0 2 8.34v17.685l13.548 5.876A1.134 1.134 0 0 0 16 32z"/></g><g mask="url(#g)"><path fill="url(#h)" d="M15.147 31.618a1.142 1.142 0 0 0 1.706 0l6.089-6.87a3.482 3.482 0 0 0 .878-2.31V3.29L16.452.094a1.133 1.133 0 0 0-.905 0L8.18 3.29v19.148a3.482 3.482 0 0 0 .878 2.31z"/></g><g><path fill="#fff" d="M16 5.85A10.15 10.15 0 1 0 26.15 16 10.15 10.15 0 0 0 16 5.85zm0 17.96a7.998 7.998 0 0 1-5.352-2.045 6.066 6.066 0 0 1 .81-2.166c.432-.715-.158-1.336-.818-1.666s-2.283-.759-2.638-1.448.58-1.189 1.279-1.584-.112-1.298.42-1.758c.75-.648 1.13-.457 1.442-1.34.21-.592-.188-1.162-.66-1.909A6.809 6.809 0 0 1 16 7.754c4.02.48 1.734 1.8 2.029 2.555s1.457.949 1.349 2.106c-.07.754-1.53.407-1.98.407-.769 0-2.561 1.381-2.443 2.585.144 1.46.651 1.535 1.598 1.555s1.556.257 1.24 1.026a4.438 4.438 0 0 0-.146 2.81c.276 1.086 1.085.553 1.519.08.434-.474 1.716-1.796 1.696-2.624s.69-1.164 1.125-1.854a2.422 2.422 0 0 0-.025-1.832c.801 0 2.223.07 2.168 1.316A8.16 8.16 0 0 1 16 23.81z"/><path fill="none" d="M0 0H32V32H0z"/></g></svg>