<svg height="48pt" viewBox="0 0 48 48" width="48pt" xmlns="http://www.w3.org/2000/svg" xmlns:xlink="http://www.w3.org/1999/xlink"><linearGradient id="a" gradientTransform="matrix(12.637 0 0 12.818 18.988 18.988)" gradientUnits="userSpaceOnUse" x1=".518087" x2=".507327" y1=".033331" y2=".968189"><stop offset="0" stop-color="#f46133"/><stop offset=".9875" stop-color="#f05081"/></linearGradient><linearGradient id="b" gradientUnits="userSpaceOnUse" x1="23.72" x2="37.037" y1="30.3785" y2="30.3785"><stop offset="0" stop-color="#f7f206"/><stop offset=".97826086957" stop-color="#ffbb24"/></linearGradient><linearGradient id="c" gradientUnits="userSpaceOnUse" x1="1.5436657" x2="45.956402" y1="5.2551014" y2="46.7618405"><stop offset="0" stop-color="#a5f86a"/><stop offset=".97916666667" stop-color="#2fce92"/></linearGradient><g fill-rule="evenodd"><path d="m25.866 18.988 5.758 5.758h-6.696v7.06l-4.818-4.818-1.122-1.145v-6.855zm-.826 2.002 1.76 1.76h-3.87v4.23l-1.4-1.4-.54-.55v-4.04z" fill="url(#a)"/><path d="m30.598 23.72 6.439 6.439h-6.878v6.878l-6.439-6.439v-6.878zm-.828 2 2.44 2.44h-4.05v4.05l-2.44-2.44v-4.05z" fill="url(#b)"/><path d="m38.72 26.69.28.27 4.54 4.55c.93-2.4 1.4-4.94 1.41-7.51 0-.828.672-1.5 1.5-1.5.828 0 1.5.672 1.5 1.5-.01 3.75-.9 7.45-2.59 10.79-.22.43-.63.72-1.11.8-.47.08-.95-.08-1.29-.42l-6.09-6.08-.44-.45-.41-.41c-.37-.37-.52-.91-.4-1.42.23-.92.35-1.87.35-2.81 0-3.18-1.26-6.22-3.51-8.47-2.24-2.24-5.29-3.5-8.46-3.5s-6.22 1.26-8.46 3.51c-2.25 2.24-3.51 5.29-3.51 8.46s1.26 6.22 3.5 8.46c2.25 2.25 5.29 3.51 8.47 3.51.94 0 1.89-.12 2.81-.35.51-.12 1.05.03 1.42.4l.45.45.41.4 6.1 6.1c.33.34.49.83.42 1.3-.08.48-.38.89-.81 1.1-3.35 1.7-7.05 2.58-10.8 2.58-6.35 0-12.45-2.52-16.94-7.01-4.48-4.49-7.01-10.59-7.01-16.94s2.53-12.45 7.01-16.94c4.49-4.48 10.59-7.01 16.94-7.01.828 0 1.5.672 1.5 1.5 0 .828-.672 1.5-1.5 1.5-5.55 0-10.89 2.21-14.81 6.14-3.93 3.92-6.14 9.26-6.14 14.81s2.21 10.89 6.14 14.81c3.92 3.93 9.26 6.14 14.81 6.14 2.57 0 5.12-.48 7.52-1.4l-4.56-4.55-.27-.28c-.89.16-1.79.25-2.69.25-3.97 0-7.78-1.58-10.58-4.38-2.81-2.81-4.39-6.62-4.39-10.59s1.58-7.78 4.38-10.59c2.81-2.8 6.62-4.38 10.59-4.38s7.78 1.58 10.59 4.39c2.8 2.8 4.38 6.61 4.38 10.58 0 .9-.09 1.8-.25 2.69zm-9.87-23.13c-.806-.188-1.305-.994-1.115-1.8.19-.806.999-1.308 1.805-1.12 4.33 1.03 8.29 3.25 11.43 6.4 3.15 3.14 5.36 7.1 6.39 11.43.188.806-.312 1.615-1.115 1.805-.803.19-1.612-.309-1.805-1.115-.9-3.79-2.83-7.25-5.59-10-2.75-2.76-6.21-4.7-10-5.6zm5.83 27.07 10.82 10.82v4.05h-4.05l-10.71-10.71v-4.16zm.819-2.004.081.076 11.92 11.92v6.878h-6.878l-11.88-11.88v-6.994z" fill="url(#c)"/></g></svg>