<svg viewBox="0 0 512 512" xmlns="http://www.w3.org/2000/svg"><text x="729.64" y="231.36"><tspan x="729.64" y="231.36"/></text><text transform="scale(4.0128 .2492)" x="378.91" y="579.26"/><text x="1310.91" y="151.36"><tspan x="1310.91" y="151.36"/></text><text transform="scale(4.0128 .2492)" x="523.76" y="258.22"/><text x="239.33" y="-29.9"><tspan x="239.33" y="-29.9"/></text><text transform="scale(4.0128 .2492)" x="256.72" y="-469.13"/><text x="1337.38" y="-246.37"><tspan x="1337.38" y="-246.37"/></text><text transform="scale(4.0128 .2492)" x="530.36" y="-1337.8"/><text x="1918.65" y="-326.37"><tspan x="1918.65" y="-326.37"/></text><text transform="scale(4.0128 .2492)" x="675.21" y="-1658.83"/><text x="1529.53" y="-798.77"><tspan x="1529.53" y="-798.77"/></text><text transform="scale(4.0128 .2492)" x="578.24" y="-3554.48"/><text x="2110.79" y="-878.78"><tspan x="2110.79" y="-878.78"/></text><text transform="scale(4.0128 .2492)" x="723.09" y="-3875.52"/><text x="277.99" y="535.94"><tspan x="277.99" y="535.94"/></text><text x="-26503.28" y="1333.12"><tspan x="-26503.28" y="1333.12"/></text><text transform="scale(4.0128 .2492)" x="789.65" y="-7750.49"/><text x="-26638.02" y="2245.18"><tspan x="-26638.02" y="2245.18"/></text><text transform="scale(4.0128 .2492)" x="756.11" y="-4090.64"/><g fill="#555753"><text transform="scale(1.05082 .95163)" x="-12204.42" y="-4803.64"><tspan x="-12204.42" y="-4803.64"/></text><text transform="scale(4.21677 .23715)" x="1497.56" y="-27317.16"/><text transform="scale(1.05082 .95163)" x="-2801.58" y="-5628.65"><tspan x="-2801.58" y="-5628.65"/></text><text transform="scale(4.21677 .23715)" x="1731.66" y="-26891.27"/><text x="-38837.82" y="-1780.54"><tspan x="-38837.82" y="-1780.54"/></text><text transform="scale(4.0128 .2492)" x="-2579.76" y="-19720.52"/></g><text stroke="#cd1d31" stroke-width="23.273" x="-24654.72" y="-14007.1"><tspan stroke-width="23.273" x="-24654.72" y="-14007.1"/></text><text transform="scale(4.0128 .2492)" x="1250.45" y="-69308.17"/><text stroke="#cd1d31" stroke-width="23.273" x="-24789.71" y="-13095.04"><tspan stroke-width="23.273" x="-24789.71" y="-13095.04"/></text><text transform="scale(4.0128 .2492)" x="1216.77" y="-65648.09"/><g fill="#555753"><g stroke="#cd1d31" stroke-width="23.273"><text transform="scale(1.05082 .95163)" x="-10445.25" y="-20923.66"><tspan stroke-width="23.273" x="-10445.25" y="-20923.66"/></text><text transform="scale(4.21677 .23715)" x="1936" y="-92004.09"/><text transform="scale(1.05082 .95163)" x="-1042.64" y="-21748.44"><tspan stroke-width="23.273" x="-1042.64" y="-21748.44"/></text><text transform="scale(4.21677 .23715)" x="2169.89" y="-91578.2"/><text x="-36989.27" y="-17120.76"><tspan stroke-width="23.273" x="-36989.27" y="-17120.76"/></text></g><text transform="scale(4.0128 .2492)" x="-2119.19" y="-81278.2"/></g><text stroke="#cd1d31" stroke-width="23.273" x="-7678.9" y="-20696.61"><tspan stroke-width="23.273" x="-7678.9" y="-20696.61"/></text><text transform="scale(4.0128 .2492)" x="5184.92" y="-95627.4"/><text stroke="#cd1d31" stroke-width="23.273" x="13257.72" y="-23578.24"><tspan stroke-width="23.273" x="13257.72" y="-23578.24"/></text><text transform="scale(4.0128 .2492)" x="10402.4" y="-107190.64"/><text x="-39142.23000000001" y="6633.72"><tspan x="-39142.23000000001" y="6633.72"/></text><text transform="scale(4.0128 .2492)" x="-2359.83" y="13520.21"/><text x="4846.02" y="-770.73"><tspan x="4846.02" y="-770.73"/></text><text transform="scale(4.0128 .2492)" x="5794.19" y="-11218.34"/><text x="18373.76" y="-2632.55"><tspan x="18373.76" y="-2632.55"/></text><text transform="scale(4.0128 .2492)" x="9165.23" y="-18689.78"/><text x="-6564.83" y="-6850.97"><tspan x="-6564.83" y="-6850.97"/></text><text transform="scale(4.0128 .2492)" x="2950.51" y="-35617.11"/><text x="18989.79" y="-11888.86"><tspan x="18989.79" y="-11888.86"/></text><text transform="scale(4.0128 .2492)" x="9318.83" y="-55833.57"/><text x="32517.3" y="-13750.63"><tspan x="32517.3" y="-13750.63"/></text><text transform="scale(4.0128 .2492)" x="12689.87" y="-63304.77"/><text x="23461.41" y="-24744.67"><tspan x="23461.41" y="-24744.67"/></text><text transform="scale(4.0128 .2492)" x="10433.12" y="-107421.73"/><text x="36989.15" y="-26606.72"><tspan x="36989.15" y="-26606.72"/></text><text transform="scale(4.0128 .2492)" x="13804.16" y="-114893.16"/><text x="-5665.34" y="6317.68"><tspan x="-5665.34" y="6317.68"/></text><text x="-27377.63" y="1332.19"><tspan x="-27377.63" y="1332.19"/></text><text transform="scale(4.0128 .2492)" x="571.82" y="-7754.45"/><text x="-27512.38" y="2244.25"><tspan x="-27512.38" y="2244.25"/></text><text transform="scale(4.0128 .2492)" x="538.24" y="-4094.36"/><g fill="#555753"><text transform="scale(1.05082 .95163)" x="-13036.42" y="-4804.8"><tspan x="-13036.42" y="-4804.8"/></text><text transform="scale(4.21677 .23715)" x="1290.17" y="-27321.35"/><text transform="scale(1.05082 .95163)" x="-3633.81" y="-5629.82"><tspan x="-3633.81" y="-5629.82"/></text><text transform="scale(4.21677 .23715)" x="1524.3" y="-26895.23"/><text x="-39712.18" y="-1781.47"><tspan x="-39712.18" y="-1781.47"/></text><text transform="scale(4.0128 .2492)" x="-2797.59" y="-19724.48"/></g><text stroke="#cd1d31" stroke-width="23.273" x="-25529.08" y="-14008.03"><tspan stroke-width="23.273" x="-25529.08" y="-14008.03"/></text><text transform="scale(4.0128 .2492)" x="1032.48" y="-69311.89"/><text stroke="#cd1d31" stroke-width="23.273" x="-25663.83" y="-13095.97"><tspan stroke-width="23.273" x="-25663.83" y="-13095.97"/></text><text transform="scale(4.0128 .2492)" x="998.87" y="-65652.05"/><g fill="#555753"><g stroke="#cd1d31" stroke-width="23.273"><text transform="scale(1.05082 .95163)" x="-11277.24" y="-20924.59"><tspan stroke-width="23.273" x="-11277.24" y="-20924.59"/></text><text transform="scale(4.21677 .23715)" x="1728.59" y="-92008.28"/><text transform="scale(1.05082 .95163)" x="-1874.63" y="-21749.61"><tspan stroke-width="23.273" x="-1874.63" y="-21749.61"/></text><text transform="scale(4.21677 .23715)" x="1962.64" y="-91582.16"/><text x="-37863.63" y="-17121.69"><tspan stroke-width="23.273" x="-37863.63" y="-17121.69"/></text></g><text transform="scale(4.0128 .2492)" x="-2337.02" y="-81282.16"/></g><text stroke="#cd1d31" stroke-width="23.273" x="-8553.25" y="-20697.54"><tspan stroke-width="23.273" x="-8553.25" y="-20697.54"/></text><text transform="scale(4.0128 .2492)" x="4967.08" y="-95631.35"/><text stroke="#cd1d31" stroke-width="23.273" x="12383.36" y="-23579.17"><tspan stroke-width="23.273" x="12383.36" y="-23579.17"/></text><text transform="scale(4.0128 .2492)" x="10184.34" y="-107194.59"/><text x="-1068.04" y="532.54"><tspan x="-1068.04" y="532.54"/></text><text transform="scale(4.0128 .2492)" x="-34.2" y="1725.42"/><text x="311.89" y="300.05"><tspan x="311.89" y="300.05"/></text><text transform="scale(4.0128 .2492)" x="221.61" y="949.51"/><text x="736.29" y="241.63"><tspan x="736.29" y="241.63"/></text><text transform="scale(4.0128 .2492)" x="327.39" y="714.92"/><text x="-46.09" y="109.44"><tspan x="-46.09" y="109.44"/></text><text transform="scale(4.0128 .2492)" x="132.43" y="183.84"/><text x="755.63" y="-48.579"><tspan x="755.63" y="-48.579"/></text><text transform="scale(4.0128 .2492)" x="332.2" y="-450.33"/><text x="1180.01" y="-106.99"><tspan x="1180.01" y="-106.99"/></text><text transform="scale(4.0128 .2492)" x="438" y="-684.69"/><text x="895.92" y="-451.9"><tspan x="895.92" y="-451.9"/></text><text transform="scale(4.0128 .2492)" x="367.25" y="-2068.71"/><text x="1320.32" y="-510.31"><tspan x="1320.32" y="-510.31"/></text><text transform="scale(4.0128 .2492)" x="472.91" y="-2303.07"/><text x="-17.863" y="522.53"><tspan x="-17.863" y="522.53"/></text><g fill="#fff"><text x="-1024.42" y="54.12"><tspan fill="#fff" x="-1024.42" y="54.12"/></text><text x="-3053.01" y="293.31"><tspan fill="#fff" x="-3053.01" y="293.31"/></text><text x="-2805.15" y="97.84"><tspan fill="#fff" x="-2805.15" y="97.84"/></text><text x="802.21" y="-123.09"><tspan fill="#fff" x="802.21" y="-123.09"/></text><text x="-1027.81" y="1.637"><tspan fill="#fff" x="-1027.81" y="1.637"/></text><text x="-3056.41" y="240.82"><tspan fill="#fff" x="-3056.41" y="240.82"/></text><text x="-2808.54" y="45.35"><tspan fill="#fff" x="-2808.54" y="45.35"/></text><text x="-1040.52" y="48.3"><tspan fill="#fff" x="-1040.52" y="48.3"/></text><text x="-3138.94" y="295.71"><tspan fill="#fff" x="-3138.94" y="295.71"/></text><text x="-2882.55" y="93.53"><tspan fill="#fff" x="-2882.55" y="93.53"/></text><text x="848.97" y="-135.01"><tspan fill="#fff" x="848.97" y="-135.01"/></text><text x="-1044.04" y="-5.994"><tspan fill="#fff" x="-1044.04" y="-5.994"/></text><text x="-3142.45" y="241.42"><tspan fill="#fff" x="-3142.45" y="241.42"/></text><text x="-2886.05" y="39.22"><tspan fill="#fff" x="-2886.05" y="39.22"/></text><text opacity=".408" x="-1024.42" y="54.12"><tspan fill="#fff" x="-1024.42" y="54.12"/></text><text opacity=".408" x="-3053.01" y="293.31"><tspan fill="#fff" x="-3053.01" y="293.31"/></text><text opacity=".408" x="-2805.15" y="97.84"><tspan fill="#fff" x="-2805.15" y="97.84"/></text><text opacity=".408" x="802.21" y="-123.09"><tspan fill="#fff" x="802.21" y="-123.09"/></text><text opacity=".408" x="-1027.81" y="1.637"><tspan fill="#fff" x="-1027.81" y="1.637"/></text><text opacity=".408" x="-3056.41" y="240.82"><tspan fill="#fff" x="-3056.41" y="240.82"/></text><text opacity=".408" x="-2808.54" y="45.35"><tspan fill="#fff" x="-2808.54" y="45.35"/></text><text opacity=".408" x="-1040.52" y="48.3"><tspan fill="#fff" x="-1040.52" y="48.3"/></text><text opacity=".408" x="-3138.94" y="295.71"><tspan fill="#fff" x="-3138.94" y="295.71"/></text><text opacity=".408" x="-2882.55" y="93.53"><tspan fill="#fff" x="-2882.55" y="93.53"/></text><text opacity=".408" x="848.97" y="-135.01"><tspan fill="#fff" x="848.97" y="-135.01"/></text><text opacity=".408" x="-1044.04" y="-5.994"><tspan fill="#fff" x="-1044.04" y="-5.994"/></text><text opacity=".408" x="-3142.45" y="241.42"><tspan fill="#fff" x="-3142.45" y="241.42"/></text><text opacity=".408" x="-2886.05" y="39.22"><tspan fill="#fff" x="-2886.05" y="39.22"/></text></g><text x="556.08" y="153.26"><tspan x="556.08" y="153.26"/></text><text transform="scale(4.0128 .2492)" x="335.66" y="265.84"/><text x="1137.35" y="73.26"><tspan x="1137.35" y="73.26"/></text><text transform="scale(4.0128 .2492)" x="480.51" y="-55.19"/><text x="65.771" y="-108"><tspan x="65.771" y="-108"/></text><text transform="scale(4.0128 .2492)" x="213.47" y="-782.55"/><text x="1163.82" y="-324.47"><tspan x="1163.82" y="-324.47"/></text><text transform="scale(4.0128 .2492)" x="487.11" y="-1651.21"/><text x="1745.09" y="-404.48"><tspan x="1745.09" y="-404.48"/></text><text transform="scale(4.0128 .2492)" x="631.96" y="-1972.25"/><text x="1355.97" y="-876.88"><tspan x="1355.97" y="-876.88"/></text><text transform="scale(4.0128 .2492)" x="534.99" y="-3867.9"/><text x="1937.23" y="-956.88"><tspan x="1937.23" y="-956.88"/></text><text transform="scale(4.0128 .2492)" x="679.84" y="-4188.93"/><text x="104.43" y="457.84"><tspan x="104.43" y="457.84"/></text><text x="733.98" y="218.03"><tspan x="733.98" y="218.03"/></text><text transform="scale(4.0128 .2492)" x="379.99" y="525.75"/><text x="1315.25" y="138.03"><tspan x="1315.25" y="138.03"/></text><text transform="scale(4.0128 .2492)" x="524.84" y="204.71"/><text x="243.67" y="-43.23"><tspan x="243.67" y="-43.23"/></text><text transform="scale(4.0128 .2492)" x="257.8" y="-522.63"/><text x="1341.72" y="-259.7"><tspan x="1341.72" y="-259.7"/></text><text transform="scale(4.0128 .2492)" x="531.44" y="-1391.3"/><text x="1922.99" y="-339.7"><tspan x="1922.99" y="-339.7"/></text><text transform="scale(4.0128 .2492)" x="676.29" y="-1712.33"/><text x="1533.87" y="-812.1"><tspan x="1533.87" y="-812.1"/></text><text transform="scale(4.0128 .2492)" x="579.32" y="-3607.97"/><text x="2115.13" y="-892.11"><tspan x="2115.13" y="-892.11"/></text><text transform="scale(4.0128 .2492)" x="724.17" y="-3929"/><text x="282.33" y="522.61"><tspan x="282.33" y="522.61"/></text><text x="556.08" y="154.24"><tspan x="556.08" y="154.24"/></text><text transform="scale(4.0128 .2492)" x="335.66" y="269.78"/><text x="1137.35" y="74.24"><tspan x="1137.35" y="74.24"/></text><text transform="scale(4.0128 .2492)" x="480.51" y="-51.26"/><text x="65.771" y="-107.02"><tspan x="65.771" y="-107.02"/></text><text transform="scale(4.0128 .2492)" x="213.47" y="-778.6"/><text x="1163.82" y="-323.49"><tspan x="1163.82" y="-323.49"/></text><text transform="scale(4.0128 .2492)" x="487.11" y="-1647.27"/><text x="1745.09" y="-403.49"><tspan x="1745.09" y="-403.49"/></text><text transform="scale(4.0128 .2492)" x="631.96" y="-1968.3"/><text x="1355.97" y="-875.89"><tspan x="1355.97" y="-875.89"/></text><text transform="scale(4.0128 .2492)" x="534.99" y="-3863.94"/><text x="1937.23" y="-955.9"><tspan x="1937.23" y="-955.9"/></text><text transform="scale(4.0128 .2492)" x="679.84" y="-4184.97"/><text x="104.43" y="458.82"><tspan x="104.43" y="458.82"/></text><text x="-732.6" y="159.48"><tspan x="-732.6" y="159.48"/></text><text transform="scale(4.0128 .2492)" x="14.517" y="290.81"/><text x="-151.33" y="79.48"><tspan x="-151.33" y="79.48"/></text><text transform="scale(4.0128 .2492)" x="159.37" y="-30.23"/><text x="-1222.91" y="-101.78"><tspan x="-1222.91" y="-101.78"/></text><text transform="scale(4.0128 .2492)" x="-107.67" y="-757.57"/><text x="-124.86" y="-318.25"><tspan x="-124.86" y="-318.25"/></text><text transform="scale(4.0128 .2492)" x="165.97" y="-1626.24"/><text x="456.41" y="-398.25"><tspan x="456.41" y="-398.25"/></text><text transform="scale(4.0128 .2492)" x="310.82" y="-1947.27"/><text x="67.29" y="-870.65"><tspan x="67.29" y="-870.65"/></text><text transform="scale(4.0128 .2492)" x="213.85" y="-3842.91"/><text x="648.55" y="-950.66"><tspan x="648.55" y="-950.66"/></text><text transform="scale(4.0128 .2492)" x="358.69" y="-4163.95"/><text x="-1184.25" y="464.06"><tspan x="-1184.25" y="464.06"/></text><text x="618.98" y="142.92"><tspan x="618.98" y="142.92"/></text><text transform="scale(4.0128 .2492)" x="351.33" y="224.36"/><text x="1200.25" y="62.922"><tspan x="1200.25" y="62.922"/></text><text transform="scale(4.0128 .2492)" x="496.18" y="-96.67"/><text x="128.67" y="-118.34"><tspan x="128.67" y="-118.34"/></text><text transform="scale(4.0128 .2492)" x="229.14" y="-824.02"/><text x="1226.72" y="-334.81"><tspan x="1226.72" y="-334.81"/></text><text transform="scale(4.0128 .2492)" x="502.78" y="-1692.69"/><text x="1807.99" y="-414.82"><tspan x="1807.99" y="-414.82"/></text><text transform="scale(4.0128 .2492)" x="647.63" y="-2013.73"/><text x="1418.87" y="-887.22"><tspan x="1418.87" y="-887.22"/></text><text transform="scale(4.0128 .2492)" x="550.66" y="-3909.38"/><text x="2000.13" y="-967.22"><tspan x="2000.13" y="-967.22"/></text><text transform="scale(4.0128 .2492)" x="695.51" y="-4230.41"/><text x="167.33" y="447.5"><tspan x="167.33" y="447.5"/></text><text x="757.84" y="51.29"><tspan x="757.84" y="51.29"/></text><text transform="scale(4.0128 .2492)" x="385.94" y="-143.32"/><text x="1339.11" y="-28.708"><tspan x="1339.11" y="-28.708"/></text><text transform="scale(4.0128 .2492)" x="530.79" y="-464.36"/><text x="267.53" y="-209.97"><tspan x="267.53" y="-209.97"/></text><text transform="scale(4.0128 .2492)" x="263.75" y="-1191.71"/><text x="1365.58" y="-426.44"><tspan x="1365.58" y="-426.44"/></text><text transform="scale(4.0128 .2492)" x="537.39" y="-2060.37"/><text x="1946.85" y="-506.44"><tspan x="1946.85" y="-506.44"/></text><text transform="scale(4.0128 .2492)" x="682.23" y="-2381.4"/><text x="1557.73" y="-978.84"><tspan x="1557.73" y="-978.84"/></text><text transform="scale(4.0128 .2492)" x="585.27" y="-4277.04"/><text x="2138.99" y="-1058.85"><tspan x="2138.99" y="-1058.85"/></text><text transform="scale(4.0128 .2492)" x="730.11" y="-4598.08"/><text x="306.19" y="355.87"><tspan x="306.19" y="355.87"/></text><text x="677.57" y="93.37"><tspan x="677.57" y="93.37"/></text><text transform="scale(4.0128 .2492)" x="365.93" y="25.505"/><text x="1258.84" y="13.367"><tspan x="1258.84" y="13.367"/></text><text transform="scale(4.0128 .2492)" x="510.78" y="-295.52"/><text x="187.26" y="-167.89"><tspan x="187.26" y="-167.89"/></text><text transform="scale(4.0128 .2492)" x="243.74" y="-1022.88"/><text x="1285.31" y="-384.36"><tspan x="1285.31" y="-384.36"/></text><text transform="scale(4.0128 .2492)" x="517.38" y="-1891.55"/><text x="1866.58" y="-464.37"><tspan x="1866.58" y="-464.37"/></text><text transform="scale(4.0128 .2492)" x="662.23" y="-2212.58"/><text x="1477.46" y="-936.77"><tspan x="1477.46" y="-936.77"/></text><text transform="scale(4.0128 .2492)" x="565.26" y="-4108.23"/><text x="2058.72" y="-1016.77"><tspan x="2058.72" y="-1016.77"/></text><text transform="scale(4.0128 .2492)" x="710.11" y="-4429.26"/><text x="225.92" y="397.95"><tspan x="225.92" y="397.95"/></text><text x="697.22" y="141.39"><tspan x="697.22" y="141.39"/></text><text transform="scale(4.0128 .2492)" x="370.83" y="218.22"/><text x="1278.49" y="61.39"><tspan x="1278.49" y="61.39"/></text><text transform="scale(4.0128 .2492)" x="515.68" y="-102.82"/><text x="206.91" y="-119.87"><tspan x="206.91" y="-119.87"/></text><text transform="scale(4.0128 .2492)" x="248.64" y="-830.17"/><text x="1304.96" y="-336.34"><tspan x="1304.96" y="-336.34"/></text><text transform="scale(4.0128 .2492)" x="522.28" y="-1698.84"/><text x="1886.23" y="-416.34"><tspan x="1886.23" y="-416.34"/></text><text transform="scale(4.0128 .2492)" x="667.13" y="-2019.87"/><text x="1497.11" y="-888.74"><tspan x="1497.11" y="-888.74"/></text><text transform="scale(4.0128 .2492)" x="570.16" y="-3915.52"/><text x="2078.37" y="-968.75"><tspan x="2078.37" y="-968.75"/></text><text transform="scale(4.0128 .2492)" x="715.01" y="-4236.56"/><text x="245.57" y="445.97"><tspan x="245.57" y="445.97"/></text><text x="646.59" y="117.46"><tspan x="646.59" y="117.46"/></text><text transform="scale(4.0128 .2492)" x="358.21" y="122.18"/><text x="1227.86" y="37.457"><tspan x="1227.86" y="37.457"/></text><text transform="scale(4.0128 .2492)" x="503.06" y="-198.85"/><text x="156.28" y="-143.8"><tspan x="156.28" y="-143.8"/></text><text transform="scale(4.0128 .2492)" x="236.02" y="-926.2"/><text x="1254.33" y="-360.27"><tspan x="1254.33" y="-360.27"/></text><text transform="scale(4.0128 .2492)" x="509.66" y="-1794.88"/><text x="1835.6" y="-440.27"><tspan x="1835.6" y="-440.27"/></text><text transform="scale(4.0128 .2492)" x="654.51" y="-2115.9"/><text x="1446.48" y="-912.67"><tspan x="1446.48" y="-912.67"/></text><text transform="scale(4.0128 .2492)" x="557.54" y="-4011.55"/><text x="2027.74" y="-992.68"><tspan x="2027.74" y="-992.68"/></text><text transform="scale(4.0128 .2492)" x="702.39" y="-4332.59"/><text x="194.94" y="422.04"><tspan x="194.94" y="422.04"/></text><text x="650.66" y="-102.18"><tspan x="650.66" y="-102.18"/></text><text transform="scale(4.0128 .2492)" x="359.23" y="-759.17"/><text x="1231.93" y="-182.18"><tspan x="1231.93" y="-182.18"/></text><text transform="scale(4.0128 .2492)" x="504.08" y="-1080.21"/><text x="160.35" y="-363.44"><tspan x="160.35" y="-363.44"/></text><text transform="scale(4.0128 .2492)" x="237.04" y="-1807.55"/><text x="1258.4" y="-579.91"><tspan x="1258.4" y="-579.91"/></text><text transform="scale(4.0128 .2492)" x="510.68" y="-2676.23"/><text x="1839.67" y="-659.91"><tspan x="1839.67" y="-659.91"/></text><text transform="scale(4.0128 .2492)" x="655.52" y="-2997.26"/><text x="1450.55" y="-1132.31"><tspan x="1450.55" y="-1132.31"/></text><text transform="scale(4.0128 .2492)" x="558.56" y="-4892.91"/><text x="2031.81" y="-1212.32"><tspan x="2031.81" y="-1212.32"/></text><text transform="scale(4.0128 .2492)" x="703.4" y="-5213.95"/><text x="199.01" y="202.4"><tspan x="199.01" y="202.4"/></text><text x="-1745.77" y="33.11"><tspan x="-1745.77" y="33.11"/></text><text transform="scale(4.0128 .2492)" x="-117.32" y="-430.01"/><text x="592.96" y="168.75"><tspan x="592.96" y="168.75"/></text><text transform="scale(4.0128 .2492)" x="344.85" y="328"/><text x="1174.23" y="88.75"><tspan x="1174.23" y="88.75"/></text><text transform="scale(4.0128 .2492)" x="489.7" y="6.967"/><text x="102.65" y="-92.51"><tspan x="102.65" y="-92.51"/></text><text transform="scale(4.0128 .2492)" x="222.66" y="-720.38"/><text x="1200.7" y="-308.98"><tspan x="1200.7" y="-308.98"/></text><text transform="scale(4.0128 .2492)" x="496.3" y="-1589.05"/><text x="1781.97" y="-388.98"><tspan x="1781.97" y="-388.98"/></text><text transform="scale(4.0128 .2492)" x="641.15" y="-1910.07"/><text x="1392.85" y="-861.38"><tspan x="1392.85" y="-861.38"/></text><text transform="scale(4.0128 .2492)" x="544.18" y="-3805.71"/><text x="1974.11" y="-941.39"><tspan x="1974.11" y="-941.39"/></text><text transform="scale(4.0128 .2492)" x="689.03" y="-4126.75"/><text x="141.31" y="473.33"><tspan x="141.31" y="473.33"/></text><text x="-1262.45" y="498.65"><tspan x="-1262.45" y="498.65"/></text><text transform="scale(4.0128 .2492)" x="3.124" y="1438.1"/><text x="627.67" y="180.49"><tspan x="627.67" y="180.49"/></text><text transform="scale(4.0128 .2492)" x="353.5" y="375.11"/><text x="1208.94" y="100.49"><tspan x="1208.94" y="100.49"/></text><text transform="scale(4.0128 .2492)" x="498.35" y="54.07"/><text x="137.36" y="-80.77"><tspan x="137.36" y="-80.77"/></text><text transform="scale(4.0128 .2492)" x="231.31" y="-673.27"/><text x="1235.41" y="-297.24"><tspan x="1235.41" y="-297.24"/></text><text transform="scale(4.0128 .2492)" x="504.95" y="-1541.95"/><text x="1816.68" y="-377.24"><tspan x="1816.68" y="-377.24"/></text><text transform="scale(4.0128 .2492)" x="649.8" y="-1862.98"/><text x="1427.56" y="-849.64"><tspan x="1427.56" y="-849.64"/></text><text transform="scale(4.0128 .2492)" x="552.83" y="-3758.63"/><text x="2008.82" y="-929.65"><tspan x="2008.82" y="-929.65"/></text><text transform="scale(4.0128 .2492)" x="697.68" y="-4079.66"/><text x="176.02" y="485.07"><tspan x="176.02" y="485.07"/></text><text x="729.64" y="231.36"><tspan x="729.64" y="231.36"/></text><text transform="scale(4.0128 .2492)" x="378.91" y="579.26"/><text x="1310.91" y="151.36"><tspan x="1310.91" y="151.36"/></text><text transform="scale(4.0128 .2492)" x="523.76" y="258.22"/><text x="239.33" y="-29.9"><tspan x="239.33" y="-29.9"/></text><text transform="scale(4.0128 .2492)" x="256.72" y="-469.13"/><text x="1337.38" y="-246.37"><tspan x="1337.38" y="-246.37"/></text><text transform="scale(4.0128 .2492)" x="530.36" y="-1337.8"/><text x="1918.65" y="-326.37"><tspan x="1918.65" y="-326.37"/></text><text transform="scale(4.0128 .2492)" x="675.21" y="-1658.83"/><text x="1529.53" y="-798.77"><tspan x="1529.53" y="-798.77"/></text><text transform="scale(4.0128 .2492)" x="578.24" y="-3554.48"/><text x="2110.79" y="-878.78"><tspan x="2110.79" y="-878.78"/></text><text transform="scale(4.0128 .2492)" x="723.09" y="-3875.52"/><text x="277.99" y="535.94"><tspan x="277.99" y="535.94"/></text><text x="729.64" y="231.36"><tspan x="729.64" y="231.36"/></text><text transform="scale(4.0128 .2492)" x="378.91" y="579.26"/><text x="1310.91" y="151.36"><tspan x="1310.91" y="151.36"/></text><text transform="scale(4.0128 .2492)" x="523.76" y="258.22"/><text x="239.33" y="-29.9"><tspan x="239.33" y="-29.9"/></text><text transform="scale(4.0128 .2492)" x="256.72" y="-469.13"/><text x="1337.38" y="-246.37"><tspan x="1337.38" y="-246.37"/></text><text transform="scale(4.0128 .2492)" x="530.36" y="-1337.8"/><text x="1918.65" y="-326.37"><tspan x="1918.65" y="-326.37"/></text><text transform="scale(4.0128 .2492)" x="675.21" y="-1658.83"/><text x="1529.53" y="-798.77"><tspan x="1529.53" y="-798.77"/></text><text transform="scale(4.0128 .2492)" x="578.24" y="-3554.48"/><text x="2110.79" y="-878.78"><tspan x="2110.79" y="-878.78"/></text><text transform="scale(4.0128 .2492)" x="723.09" y="-3875.52"/><text x="277.99" y="535.94"><tspan x="277.99" y="535.94"/></text><text x="729.64" y="231.36"><tspan x="729.64" y="231.36"/></text><text transform="scale(4.0128 .2492)" x="378.91" y="579.26"/><text x="1310.91" y="151.36"><tspan x="1310.91" y="151.36"/></text><text transform="scale(4.0128 .2492)" x="523.76" y="258.22"/><text x="239.33" y="-29.9"><tspan x="239.33" y="-29.9"/></text><text transform="scale(4.0128 .2492)" x="256.72" y="-469.13"/><text x="1337.38" y="-246.37"><tspan x="1337.38" y="-246.37"/></text><text transform="scale(4.0128 .2492)" x="530.36" y="-1337.8"/><text x="1918.65" y="-326.37"><tspan x="1918.65" y="-326.37"/></text><text transform="scale(4.0128 .2492)" x="675.21" y="-1658.83"/><text x="1529.53" y="-798.77"><tspan x="1529.53" y="-798.77"/></text><text transform="scale(4.0128 .2492)" x="578.24" y="-3554.48"/><text x="2110.79" y="-878.78"><tspan x="2110.79" y="-878.78"/></text><text transform="scale(4.0128 .2492)" x="723.09" y="-3875.52"/><text x="277.99" y="535.94"><tspan x="277.99" y="535.94"/></text><text x="1317.57" y="129.39"><tspan x="1317.57" y="129.39"/></text><text transform="scale(4.0128 .2492)" x="525.42" y="170.08"/><text x="1898.84" y="49.39"><tspan x="1898.84" y="49.39"/></text><text transform="scale(4.0128 .2492)" x="670.27" y="-150.95"/><text x="827.26" y="-131.87"><tspan x="827.26" y="-131.87"/></text><text transform="scale(4.0128 .2492)" x="403.23" y="-878.31"/><text x="1925.31" y="-348.34"><tspan x="1925.31" y="-348.34"/></text><text transform="scale(4.0128 .2492)" x="676.87" y="-1746.97"/><text x="2506.58" y="-428.35"><tspan x="2506.58" y="-428.35"/></text><text transform="scale(4.0128 .2492)" x="821.72" y="-2068.01"/><text x="2117.46" y="-900.75"><tspan x="2117.46" y="-900.75"/></text><text transform="scale(4.0128 .2492)" x="724.75" y="-3963.66"/><text x="2698.72" y="-980.75"><tspan x="2698.72" y="-980.75"/></text><text transform="scale(4.0128 .2492)" x="869.6" y="-4284.69"/><text x="865.92" y="433.97"><tspan x="865.92" y="433.97"/></text><text x="729.64" y="231.36"><tspan x="729.64" y="231.36"/></text><text transform="scale(4.0128 .2492)" x="378.91" y="579.25"/><text x="1310.91" y="151.36"><tspan x="1310.91" y="151.36"/></text><text transform="scale(4.0128 .2492)" x="523.76" y="258.22"/><text x="239.33" y="-29.901"><tspan x="239.33" y="-29.901"/></text><text transform="scale(4.0128 .2492)" x="256.72" y="-469.14"/><text x="1337.38" y="-246.37"><tspan x="1337.38" y="-246.37"/></text><text transform="scale(4.0128 .2492)" x="530.36" y="-1337.8"/><text x="1918.65" y="-326.38"><tspan x="1918.65" y="-326.38"/></text><text transform="scale(4.0128 .2492)" x="675.21" y="-1658.84"/><text x="1529.53" y="-798.78"><tspan x="1529.53" y="-798.78"/></text><text transform="scale(4.0128 .2492)" x="578.24" y="-3554.49"/><text x="2110.79" y="-878.78"><tspan x="2110.79" y="-878.78"/></text><text transform="scale(4.0128 .2492)" x="723.09" y="-3875.52"/><text x="277.99" y="535.94"><tspan x="277.99" y="535.94"/></text><text x="-877.95" y="88.17"><tspan x="-877.95" y="88.17"/></text><text transform="scale(4.0128 .2492)" x="-21.706" y="4.666"/><text x="-296.68" y="8.174"><tspan x="-296.68" y="8.174"/></text><text transform="scale(4.0128 .2492)" x="123.14" y="-316.36"/><text x="-1368.26" y="-173.09"><tspan x="-1368.26" y="-173.09"/></text><text transform="scale(4.0128 .2492)" x="-143.9" y="-1043.72"/><text x="-270.21" y="-389.56"><tspan x="-270.21" y="-389.56"/></text><text transform="scale(4.0128 .2492)" x="129.74" y="-1912.38"/><text x="311.06" y="-469.57"><tspan x="311.06" y="-469.57"/></text><text transform="scale(4.0128 .2492)" x="274.59" y="-2233.42"/><text x="-78.06" y="-941.97"><tspan x="-78.06" y="-941.97"/></text><text transform="scale(4.0128 .2492)" x="177.62" y="-4129.07"/><text x="503.2" y="-1021.97"><tspan x="503.2" y="-1021.97"/></text><text transform="scale(4.0128 .2492)" x="322.47" y="-4450.1"/><text x="-1329.6" y="392.75"><tspan x="-1329.6" y="392.75"/></text><text x="-1758.51" y="-104.32"><tspan x="-1758.51" y="-104.32"/></text><text transform="scale(4.0128 .2492)" x="-120.49" y="-981.51"/><text x="-2406.27" y="-872.27"><tspan x="-2406.27" y="-872.27"/></text><text transform="scale(4.0128 .2492)" x="-281.92" y="-4063.17"/><text x="-1699.93" y="-1027.9"><tspan x="-1699.93" y="-1027.9"/></text><text transform="scale(4.0128 .2492)" x="-105.9" y="-4687.7"/><text x="-802.02" y="183.63"><tspan x="-802.02" y="183.63"/></text><text transform="scale(4.0128 .2492)" x="-2.784" y="387.72"/><text x="-220.75" y="103.63"><tspan x="-220.75" y="103.63"/></text><text transform="scale(4.0128 .2492)" x="142.07" y="66.69"/><text x="-1292.33" y="-77.63"><tspan x="-1292.33" y="-77.63"/></text><text transform="scale(4.0128 .2492)" x="-124.97" y="-660.66"/><text x="-194.28" y="-294.1"><tspan x="-194.28" y="-294.1"/></text><text transform="scale(4.0128 .2492)" x="148.67" y="-1529.33"/><text x="386.99" y="-374.11"><tspan x="386.99" y="-374.11"/></text><text transform="scale(4.0128 .2492)" x="293.51" y="-1850.37"/><text x="-2.131" y="-846.51"><tspan x="-2.131" y="-846.51"/></text><text transform="scale(4.0128 .2492)" x="196.55" y="-3746.02"/><text x="579.13" y="-926.51"><tspan x="579.13" y="-926.51"/></text><text transform="scale(4.0128 .2492)" x="341.39" y="-4067.05"/><text x="-1253.67" y="488.21"><tspan x="-1253.67" y="488.21"/></text><text x="-596.63" y="686.33"><tspan x="-596.63" y="686.33"/></text><text transform="scale(4.0128 .2492)" x="48.4" y="2404.96"/><text x="-15.356" y="606.33"><tspan x="-15.356" y="606.33"/></text><text transform="scale(4.0128 .2492)" x="193.25" y="2083.93"/><text x="-1086.94" y="425.07"><tspan x="-1086.94" y="425.07"/></text><text transform="scale(4.0128 .2492)" x="-73.79" y="1356.58"/><text x="11.11" y="208.6"><tspan x="11.11" y="208.6"/></text><text transform="scale(4.0128 .2492)" x="199.85" y="487.91"/><text x="592.38" y="128.59"><tspan x="592.38" y="128.59"/></text><text transform="scale(4.0128 .2492)" x="344.7" y="166.87"/><text x="203.26" y="-343.81"><tspan x="203.26" y="-343.81"/></text><text transform="scale(4.0128 .2492)" x="247.73" y="-1728.78"/><text x="784.52" y="-423.81"><tspan x="784.52" y="-423.81"/></text><text transform="scale(4.0128 .2492)" x="392.58" y="-2049.81"/><text x="-1048.28" y="990.91"><tspan x="-1048.28" y="990.91"/></text><text x="-1540.36" y="608.23"><tspan x="-1540.36" y="608.23"/></text><text transform="scale(4.0128 .2492)" x="-186.78" y="2091.55"/><text x="-959.09" y="528.23"><tspan x="-959.09" y="528.23"/></text><text transform="scale(4.0128 .2492)" x="-41.928" y="1770.52"/><text x="-2030.67" y="346.97"><tspan x="-2030.67" y="346.97"/></text><text transform="scale(4.0128 .2492)" x="-308.97" y="1043.17"/><text x="-932.62" y="130.5"><tspan x="-932.62" y="130.5"/></text><text transform="scale(4.0128 .2492)" x="-35.33" y="174.5"/><text x="-351.35" y="50.49"><tspan x="-351.35" y="50.49"/></text><text transform="scale(4.0128 .2492)" x="109.52" y="-146.54"/><text x="-740.47" y="-421.91"><tspan x="-740.47" y="-421.91"/></text><text transform="scale(4.0128 .2492)" x="12.551" y="-2042.19"/><text x="-159.21" y="-501.91"><tspan x="-159.21" y="-501.91"/></text><text transform="scale(4.0128 .2492)" x="157.4" y="-2363.22"/><text x="-1992.01" y="912.81"><tspan x="-1992.01" y="912.81"/></text><text x="-1292.9" y="683.07"><tspan x="-1292.9" y="683.07"/></text><text transform="scale(4.0128 .2492)" x="-125.11" y="2391.89"/><text x="-711.63" y="603.07"><tspan x="-711.63" y="603.07"/></text><text transform="scale(4.0128 .2492)" x="19.737" y="2070.86"/><text x="-1783.21" y="421.81"><tspan x="-1783.21" y="421.81"/></text><text transform="scale(4.0128 .2492)" x="-247.3" y="1343.51"/><text x="-685.16" y="205.34"><tspan x="-685.16" y="205.34"/></text><text transform="scale(4.0128 .2492)" x="26.337" y="474.84"/><text x="-103.89" y="125.33"><tspan x="-103.89" y="125.33"/></text><text transform="scale(4.0128 .2492)" x="171.19" y="153.8"/><text x="-493.01" y="-347.07"><tspan x="-493.01" y="-347.07"/></text><text transform="scale(4.0128 .2492)" x="74.22" y="-1741.85"/><text x="88.25" y="-427.07"><tspan x="88.25" y="-427.07"/></text><text transform="scale(4.0128 .2492)" x="219.07" y="-2062.87"/><text x="-1744.55" y="987.65"><tspan x="-1744.55" y="987.65"/></text><text x="-2158.94" y=".817"><tspan x="-2158.94" y=".817"/></text><text transform="scale(4.0128 .2492)" x="-340.93" y="-345.88"/><text x="-1577.67" y="-79.18"><tspan x="-1577.67" y="-79.18"/></text><text transform="scale(4.0128 .2492)" x="-196.08" y="-666.91"/><text x="-2649.25" y="-260.44"><tspan x="-2649.25" y="-260.44"/></text><text transform="scale(4.0128 .2492)" x="-463.12" y="-1394.26"/><text x="-1551.2" y="-476.91"><tspan x="-1551.2" y="-476.91"/></text><text transform="scale(4.0128 .2492)" x="-189.48" y="-2262.93"/><text x="-969.93" y="-556.92"><tspan x="-969.93" y="-556.92"/></text><text transform="scale(4.0128 .2492)" x="-44.632" y="-2583.97"/><text x="-1359.05" y="-1029.32"><tspan x="-1359.05" y="-1029.32"/></text><text transform="scale(4.0128 .2492)" x="-141.6" y="-4479.62"/><text x="-777.79" y="-1109.32"><tspan x="-777.79" y="-1109.32"/></text><text transform="scale(4.0128 .2492)" x="3.248" y="-4800.65"/><text x="-2610.59" y="305.4"><tspan x="-2610.59" y="305.4"/></text><text x="-3039.5" y="-191.68"><tspan x="-3039.5" y="-191.68"/></text><text transform="scale(4.0128 .2492)" x="-439.72" y="-1332.06"/><text x="-3687.26" y="-959.63"><tspan x="-3687.26" y="-959.63"/></text><text transform="scale(4.0128 .2492)" x="-601.14" y="-4413.72"/><text x="-2980.92" y="-1115.26"><tspan x="-2980.92" y="-1115.26"/></text><text transform="scale(4.0128 .2492)" x="-425.12" y="-5038.25"/><text x="-2508.23" y="170.04"><tspan x="-2508.23" y="170.04"/></text><text transform="scale(4.0128 .2492)" x="-427.97" y="333.17"/><text x="-1926.96" y="90.04"><tspan x="-1926.96" y="90.04"/></text><text transform="scale(4.0128 .2492)" x="-283.12" y="12.143"/><text x="-2998.54" y="-91.22"><tspan x="-2998.54" y="-91.22"/></text><text transform="scale(4.0128 .2492)" x="-550.16" y="-715.21"/><text x="-1900.49" y="-307.69"><tspan x="-1900.49" y="-307.69"/></text><text transform="scale(4.0128 .2492)" x="-276.52" y="-1583.88"/><text x="-1319.22" y="-387.7"><tspan x="-1319.22" y="-387.7"/></text><text transform="scale(4.0128 .2492)" x="-131.68" y="-1904.92"/><text x="-1708.34" y="-860.1"><tspan x="-1708.34" y="-860.1"/></text><text transform="scale(4.0128 .2492)" x="-228.64" y="-3800.57"/><text x="-1127.08" y="-940.1"><tspan x="-1127.08" y="-940.1"/></text><text transform="scale(4.0128 .2492)" x="-83.8" y="-4121.6"/><text x="-2959.88" y="474.62"><tspan x="-2959.88" y="474.62"/></text><text x="729.63" y="231.34"><tspan x="729.63" y="231.34"/></text><text transform="scale(4.0128 .2492)" x="378.92" y="579.26"/><text x="1310.91" y="151.36"><tspan x="1310.91" y="151.36"/></text><text transform="scale(4.0128 .2492)" x="523.77" y="258.22"/><text x="239.31" y="-29.902"><tspan x="239.31" y="-29.902"/></text><text transform="scale(4.0128 .2492)" x="256.71" y="-469.13"/><text x="1337.38" y="-246.37"><tspan x="1337.38" y="-246.37"/></text><text transform="scale(4.0128 .2492)" x="530.36" y="-1337.81"/><text x="1918.66" y="-326.37"><tspan x="1918.66" y="-326.37"/></text><text transform="scale(4.0128 .2492)" x="675.21" y="-1658.83"/><text x="1529.54" y="-798.77"><tspan x="1529.54" y="-798.77"/></text><text transform="scale(4.0128 .2492)" x="578.23" y="-3554.49"/><text x="2110.78" y="-878.78"><tspan x="2110.78" y="-878.78"/></text><text transform="scale(4.0128 .2492)" x="723.08" y="-3875.51"/><text x="277.97" y="535.92"><tspan x="277.97" y="535.92"/></text><text x="1313.23" y="100.11"><tspan x="1313.23" y="100.11"/></text><text transform="scale(4.0128 .2492)" x="524.34" y="52.56"/><text x="1894.5" y="20.11"><tspan x="1894.5" y="20.11"/></text><text transform="scale(4.0128 .2492)" x="669.19" y="-268.48"/><text x="822.92" y="-161.15"><tspan x="822.92" y="-161.15"/></text><text transform="scale(4.0128 .2492)" x="402.15" y="-995.83"/><text x="1920.97" y="-377.62"><tspan x="1920.97" y="-377.62"/></text><text transform="scale(4.0128 .2492)" x="675.79" y="-1864.49"/><text x="2502.24" y="-457.62"><tspan x="2502.24" y="-457.62"/></text><text transform="scale(4.0128 .2492)" x="820.64" y="-2185.52"/><text x="2113.12" y="-930.02"><tspan x="2113.12" y="-930.02"/></text><text transform="scale(4.0128 .2492)" x="723.67" y="-4081.16"/><text x="2694.38" y="-1010.03"><tspan x="2694.38" y="-1010.03"/></text><text transform="scale(4.0128 .2492)" x="868.52" y="-4402.2"/><text x="861.58" y="404.69"><tspan x="861.58" y="404.69"/></text><text x="673.23" y="28.706"><tspan x="673.23" y="28.706"/></text><text transform="scale(4.0128 .2492)" x="364.85" y="-233.97"/><text x="1254.5" y="-51.3"><tspan x="1254.5" y="-51.3"/></text><text transform="scale(4.0128 .2492)" x="509.7" y="-555.01"/><text x="182.92" y="-232.55"><tspan x="182.92" y="-232.55"/></text><text transform="scale(4.0128 .2492)" x="242.66" y="-1282.35"/><text x="1280.97" y="-449.02"><tspan x="1280.97" y="-449.02"/></text><text transform="scale(4.0128 .2492)" x="516.3" y="-2151.02"/><text x="1862.24" y="-529.03"><tspan x="1862.24" y="-529.03"/></text><text transform="scale(4.0128 .2492)" x="661.15" y="-2472.05"/><text x="1473.12" y="-1001.43"><tspan x="1473.12" y="-1001.43"/></text><text transform="scale(4.0128 .2492)" x="564.18" y="-4367.69"/><text x="2054.39" y="-1081.43"><tspan x="2054.39" y="-1081.43"/></text><text transform="scale(4.0128 .2492)" x="709.03" y="-4688.72"/><text x="221.58" y="333.29"><tspan x="221.58" y="333.29"/></text><text x="3777.37" y="-714.17"><tspan x="3777.37" y="-714.17"/></text><text transform="scale(4.0128 .2492)" x="1138.4" y="-3214.98"/><text x="4358.64" y="-794.17"><tspan x="4358.64" y="-794.17"/></text><text transform="scale(4.0128 .2492)" x="1283.24" y="-3536"/><text x="3287.06" y="-975.42"><tspan x="3287.06" y="-975.42"/></text><text transform="scale(4.0128 .2492)" x="1016.21" y="-4263.36"/><text x="4385.11" y="-1191.9"><tspan x="4385.11" y="-1191.9"/></text><text transform="scale(4.0128 .2492)" x="1289.84" y="-5132.02"/><text x="4966.38" y="-1271.9"><tspan x="4966.38" y="-1271.9"/></text><text transform="scale(4.0128 .2492)" x="1434.69" y="-5453.04"/><text x="4577.26" y="-1744.3"><tspan x="4577.26" y="-1744.3"/></text><text transform="scale(4.0128 .2492)" x="1337.72" y="-7348.69"/><text x="5158.52" y="-1824.3"><tspan x="5158.52" y="-1824.3"/></text><text transform="scale(4.0128 .2492)" x="1482.57" y="-7669.72"/><text x="3325.72" y="-409.59"><tspan x="3325.72" y="-409.59"/></text><text x="33.713" y="-64.37"><tspan x="33.713" y="-64.37"/></text><text transform="scale(4.0128 .2492)" x="205.48" y="-607.48"/><text x="614.99" y="-144.37"><tspan x="614.99" y="-144.37"/></text><text transform="scale(4.0128 .2492)" x="350.33" y="-928.51"/><text x="-456.6" y="-325.63"><tspan x="-456.6" y="-325.63"/></text><text transform="scale(4.0128 .2492)" x="83.29" y="-1655.86"/><text x="641.46" y="-542.1"><tspan x="641.46" y="-542.1"/></text><text transform="scale(4.0128 .2492)" x="356.93" y="-2524.52"/><text x="1222.72" y="-622.11"><tspan x="1222.72" y="-622.11"/></text><text transform="scale(4.0128 .2492)" x="501.78" y="-2845.56"/><text x="833.6" y="-1094.51"><tspan x="833.6" y="-1094.51"/></text><text transform="scale(4.0128 .2492)" x="404.81" y="-4741.2"/><text x="1414.86" y="-1174.51"><tspan x="1414.86" y="-1174.51"/></text><text transform="scale(4.0128 .2492)" x="549.66" y="-5062.23"/><text x="-417.94" y="240.21"><tspan x="-417.94" y="240.21"/></text><text x="-2641.77" y="221.25"><tspan x="-2641.77" y="221.25"/></text><text transform="scale(4.0128 .2492)" x="-340.61" y="324.92"/><text x="-1935.43" y="65.62"><tspan x="-1935.43" y="65.62"/></text><text transform="scale(4.0128 .2492)" x="-164.59" y="-299.6"/><text x="-1902.06" y="57.5"><tspan x="-1902.06" y="57.5"/></text><text transform="scale(4.0128 .2492)" x="-156.27" y="-332.2"/><text x="-751.64" y="-96.91"><tspan x="-751.64" y="-96.91"/></text><text transform="scale(4.0128 .2492)" x="9.773" y="-738.06"/><text x="-170.38" y="-176.91"><tspan x="-170.38" y="-176.91"/></text><text transform="scale(4.0128 .2492)" x="154.62" y="-1059.1"/><text x="-1241.96" y="-358.17"><tspan x="-1241.96" y="-358.17"/></text><text transform="scale(4.0128 .2492)" x="-112.42" y="-1786.43"/><text x="-143.91" y="-574.64"><tspan x="-143.91" y="-574.64"/></text><text transform="scale(4.0128 .2492)" x="161.22" y="-2655.1"/><text x="437.36" y="-654.64"><tspan x="437.36" y="-654.64"/></text><text transform="scale(4.0128 .2492)" x="306.06" y="-2976.13"/><text x="48.24" y="-1127.04"><tspan x="48.24" y="-1127.04"/></text><text transform="scale(4.0128 .2492)" x="209.1" y="-4871.76"/><text x="629.51" y="-1207.05"><tspan x="629.51" y="-1207.05"/></text><text transform="scale(4.0128 .2492)" x="353.94" y="-5192.8"/><text x="-1203.3" y="207.67"><tspan x="-1203.3" y="207.67"/></text><text x="-802.09" y="-835.92"><tspan x="-802.09" y="-835.92"/></text><text transform="scale(4.0128 .2492)" x="-2.797" y="-3703.55"/><text x="-220.82" y="-915.92"><tspan x="-220.82" y="-915.92"/></text><text transform="scale(4.0128 .2492)" x="142.05" y="-4024.57"/><text x="-1292.4" y="-1097.18"><tspan x="-1292.4" y="-1097.18"/></text><text transform="scale(4.0128 .2492)" x="-124.99" y="-4751.93"/><text x="-194.35" y="-1313.65"><tspan x="-194.35" y="-1313.65"/></text><text transform="scale(4.0128 .2492)" x="148.65" y="-5620.58"/><text x="386.91" y="-1393.66"><tspan x="386.91" y="-1393.66"/></text><text transform="scale(4.0128 .2492)" x="293.49" y="-5941.62"/><text x="-2.207" y="-1866.06"><tspan x="-2.207" y="-1866.06"/></text><text transform="scale(4.0128 .2492)" x="196.53" y="-7837.25"/><text x="579.07" y="-1946.06"><tspan x="579.07" y="-1946.06"/></text><text transform="scale(4.0128 .2492)" x="341.37" y="-8158.27"/><text x="-1253.75" y="-531.34"><tspan x="-1253.75" y="-531.34"/></text><text x="2302.05" y="-1578.8"><tspan x="2302.05" y="-1578.8"/></text><text transform="scale(4.0128 .2492)" x="770.74" y="-6684.54"/><text x="2883.31" y="-1658.8"><tspan x="2883.31" y="-1658.8"/></text><text transform="scale(4.0128 .2492)" x="915.59" y="-7005.58"/><text x="1811.73" y="-1840.05"><tspan x="1811.73" y="-1840.05"/></text><text transform="scale(4.0128 .2492)" x="648.55" y="-7732.91"/><text x="2909.78" y="-2056.53"><tspan x="2909.78" y="-2056.53"/></text><text transform="scale(4.0128 .2492)" x="922.19" y="-8601.57"/><text x="3491.05" y="-2136.53"><tspan x="3491.05" y="-2136.53"/></text><text transform="scale(4.0128 .2492)" x="1067.04" y="-8922.61"/><text x="3101.93" y="-2608.93"><tspan x="3101.93" y="-2608.93"/></text><text transform="scale(4.0128 .2492)" x="970.07" y="-10818.24"/><text x="3683.2" y="-2688.93"><tspan x="3683.2" y="-2688.93"/></text><text transform="scale(4.0128 .2492)" x="1114.92" y="-11139.27"/><text x="1850.39" y="-1274.22"><tspan x="1850.39" y="-1274.22"/></text><text x="-2692.22" y="-520.14"><tspan x="-2692.22" y="-520.14"/></text><text transform="scale(4.0128 .2492)" x="-353.18" y="-2650.13"/><text x="-2692.22" y="-520.14"><tspan x="-2692.22" y="-520.14"/></text><text transform="scale(4.0128 .2492)" x="-353.18" y="-2650.13"/><text x="-3025.77" y="112.77"><tspan x="-3025.77" y="112.77"/></text><text transform="scale(4.0128 .2492)" x="-436.29" y="-110.38"/><text x="-2319.43" y="-42.864"><tspan x="-2319.43" y="-42.864"/></text><text transform="scale(4.0128 .2492)" x="-260.28" y="-734.89"/><text x="1313.23" y="100.11"><tspan x="1313.23" y="100.11"/></text><text transform="scale(4.0128 .2492)" x="524.34" y="52.55"/><text x="1894.5" y="20.11"><tspan x="1894.5" y="20.11"/></text><text transform="scale(4.0128 .2492)" x="669.19" y="-268.48"/><text x="822.92" y="-161.16"><tspan x="822.92" y="-161.16"/></text><text transform="scale(4.0128 .2492)" x="402.15" y="-995.84"/><text x="1920.97" y="-377.62"><tspan x="1920.97" y="-377.62"/></text><text transform="scale(4.0128 .2492)" x="675.79" y="-1864.5"/><text x="2502.24" y="-457.63"><tspan x="2502.24" y="-457.63"/></text><text transform="scale(4.0128 .2492)" x="820.64" y="-2185.54"/><text x="2113.12" y="-930.03"><tspan x="2113.12" y="-930.03"/></text><text transform="scale(4.0128 .2492)" x="723.67" y="-4081.19"/><text x="2694.38" y="-1010.03"><tspan x="2694.38" y="-1010.03"/></text><text transform="scale(4.0128 .2492)" x="868.52" y="-4402.22"/><text x="861.58" y="404.69"><tspan x="861.58" y="404.69"/></text><text x="-1362.25" y="385.73"><tspan x="-1362.25" y="385.73"/></text><text transform="scale(4.0128 .2492)" x="-21.747" y="984.95"/><text x="-655.91" y="230.1"><tspan x="-655.91" y="230.1"/></text><text transform="scale(4.0128 .2492)" x="154.27" y="360.43"/><text x="-622.54" y="221.98"><tspan x="-622.54" y="221.98"/></text><text transform="scale(4.0128 .2492)" x="162.59" y="327.83"/><text x="527.88" y="67.57"><tspan x="527.88" y="67.57"/></text><text transform="scale(4.0128 .2492)" x="328.63" y="-78.03"/><text x="1109.14" y="-12.434"><tspan x="1109.14" y="-12.434"/></text><text transform="scale(4.0128 .2492)" x="473.48" y="-399.07"/><text x="37.563" y="-193.69"><tspan x="37.563" y="-193.69"/></text><text transform="scale(4.0128 .2492)" x="206.44" y="-1126.41"/><text x="1135.61" y="-410.16"><tspan x="1135.61" y="-410.16"/></text><text transform="scale(4.0128 .2492)" x="480.08" y="-1995.08"/><text x="1716.88" y="-490.16"><tspan x="1716.88" y="-490.16"/></text><text transform="scale(4.0128 .2492)" x="624.92" y="-2316.11"/><text x="1327.76" y="-962.56"><tspan x="1327.76" y="-962.56"/></text><text transform="scale(4.0128 .2492)" x="527.96" y="-4211.75"/><text x="1909.02" y="-1042.57"><tspan x="1909.02" y="-1042.57"/></text><text transform="scale(4.0128 .2492)" x="672.8" y="-4532.79"/><text x="76.22" y="372.15"><tspan x="76.22" y="372.15"/></text><text x="477.43" y="-671.44"><tspan x="477.43" y="-671.44"/></text><text transform="scale(4.0128 .2492)" x="316.06" y="-3043.54"/><text x="1058.7" y="-751.44"><tspan x="1058.7" y="-751.44"/></text><text transform="scale(4.0128 .2492)" x="460.91" y="-3364.56"/><text x="-12.877" y="-932.7"><tspan x="-12.877" y="-932.7"/></text><text transform="scale(4.0128 .2492)" x="193.87" y="-4091.92"/><text x="1085.17" y="-1149.17"><tspan x="1085.17" y="-1149.17"/></text><text transform="scale(4.0128 .2492)" x="467.51" y="-4960.58"/><text x="1666.43" y="-1229.18"><tspan x="1666.43" y="-1229.18"/></text><text transform="scale(4.0128 .2492)" x="612.35" y="-5281.62"/><text x="1277.31" y="-1701.58"><tspan x="1277.31" y="-1701.58"/></text><text transform="scale(4.0128 .2492)" x="515.39" y="-7177.26"/><text x="1858.58" y="-1781.58"><tspan x="1858.58" y="-1781.58"/></text><text transform="scale(4.0128 .2492)" x="660.23" y="-7498.28"/><text x="25.773" y="-366.86"><tspan x="25.773" y="-366.86"/></text><text x="3581.57" y="-1414.32"><tspan x="3581.57" y="-1414.32"/></text><text transform="scale(4.0128 .2492)" x="1089.6" y="-6024.54"/><text x="4162.83" y="-1494.32"><tspan x="4162.83" y="-1494.32"/></text><text transform="scale(4.0128 .2492)" x="1234.45" y="-6345.58"/><text x="3091.25" y="-1675.57"><tspan x="3091.25" y="-1675.57"/></text><text transform="scale(4.0128 .2492)" x="967.41" y="-7072.92"/><text x="4189.3" y="-1892.05"><tspan x="4189.3" y="-1892.05"/></text><text transform="scale(4.0128 .2492)" x="1241.05" y="-7941.58"/><text x="4770.57" y="-1972.05"><tspan x="4770.57" y="-1972.05"/></text><text transform="scale(4.0128 .2492)" x="1385.9" y="-8262.62"/><text x="4381.45" y="-2444.45"><tspan x="4381.45" y="-2444.45"/></text><text transform="scale(4.0128 .2492)" x="1288.93" y="-10158.26"/><text x="4962.72" y="-2524.45"><tspan x="4962.72" y="-2524.45"/></text><text transform="scale(4.0128 .2492)" x="1433.78" y="-10479.29"/><text x="3129.91" y="-1109.74"><tspan x="3129.91" y="-1109.74"/></text><text x="-1412.7" y="-355.66"><tspan x="-1412.7" y="-355.66"/></text><text transform="scale(4.0128 .2492)" x="-34.32" y="-1990.11"/><text x="-1412.7" y="-355.66"><tspan x="-1412.7" y="-355.66"/></text><text transform="scale(4.0128 .2492)" x="-34.32" y="-1990.11"/><text x="-1637.77" y="199.15"><tspan x="-1637.77" y="199.15"/></text><text transform="scale(4.0128 .2492)" x="-90.41" y="236.25"/><text x="-931.43" y="43.516"><tspan x="-931.43" y="43.516"/></text><text transform="scale(4.0128 .2492)" x="85.61" y="-388.27"/><text x="729.64" y="231.36"><tspan x="729.64" y="231.36"/></text><text transform="scale(4.0128 .2492)" x="378.91" y="579.26"/><text x="1310.91" y="151.36"><tspan x="1310.91" y="151.36"/></text><text transform="scale(4.0128 .2492)" x="523.76" y="258.22"/><text x="239.33" y="-29.9"><tspan x="239.33" y="-29.9"/></text><text transform="scale(4.0128 .2492)" x="256.72" y="-469.13"/><text x="1337.38" y="-246.37"><tspan x="1337.38" y="-246.37"/></text><text transform="scale(4.0128 .2492)" x="530.36" y="-1337.8"/><text x="1918.65" y="-326.37"><tspan x="1918.65" y="-326.37"/></text><text transform="scale(4.0128 .2492)" x="675.21" y="-1658.83"/><text x="1529.53" y="-798.77"><tspan x="1529.53" y="-798.77"/></text><text transform="scale(4.0128 .2492)" x="578.24" y="-3554.48"/><text x="2110.79" y="-878.78"><tspan x="2110.79" y="-878.78"/></text><text transform="scale(4.0128 .2492)" x="723.09" y="-3875.52"/><text x="277.99" y="535.94"><tspan x="277.99" y="535.94"/></text><text x="729.64" y="231.36"><tspan x="729.64" y="231.36"/></text><text transform="scale(4.0128 .2492)" x="378.91" y="579.26"/><text x="1310.91" y="151.36"><tspan x="1310.91" y="151.36"/></text><text transform="scale(4.0128 .2492)" x="523.76" y="258.22"/><text x="239.33" y="-29.9"><tspan x="239.33" y="-29.9"/></text><text transform="scale(4.0128 .2492)" x="256.72" y="-469.13"/><text x="1337.38" y="-246.37"><tspan x="1337.38" y="-246.37"/></text><text transform="scale(4.0128 .2492)" x="530.36" y="-1337.8"/><text x="1918.65" y="-326.37"><tspan x="1918.65" y="-326.37"/></text><text transform="scale(4.0128 .2492)" x="675.21" y="-1658.83"/><text x="1529.53" y="-798.77"><tspan x="1529.53" y="-798.77"/></text><text transform="scale(4.0128 .2492)" x="578.24" y="-3554.48"/><text x="2110.79" y="-878.78"><tspan x="2110.79" y="-878.78"/></text><text transform="scale(4.0128 .2492)" x="723.09" y="-3875.52"/><text x="277.99" y="535.94"><tspan x="277.99" y="535.94"/></text><text x="1651.8" y="269.52"><tspan x="1651.8" y="269.52"/></text><text transform="scale(4.0128 .2492)" x="608.71" y="732.39"/><text x="2233.07" y="189.52"><tspan x="2233.07" y="189.52"/></text><text transform="scale(4.0128 .2492)" x="753.56" y="411.36"/><text x="1161.49" y="8.262"><tspan x="1161.49" y="8.262"/></text><text transform="scale(4.0128 .2492)" x="486.52" y="-316"/><text x="2259.54" y="-208.21"><tspan x="2259.54" y="-208.21"/></text><text transform="scale(4.0128 .2492)" x="760.16" y="-1184.66"/><text x="2840.81" y="-288.22"><tspan x="2840.81" y="-288.22"/></text><text transform="scale(4.0128 .2492)" x="905.01" y="-1505.7"/><text x="2451.69" y="-760.62"><tspan x="2451.69" y="-760.62"/></text><text transform="scale(4.0128 .2492)" x="808.04" y="-3401.35"/><text x="3032.95" y="-840.62"><tspan x="3032.95" y="-840.62"/></text><text transform="scale(4.0128 .2492)" x="952.89" y="-3722.38"/><text x="1200.15" y="574.1"><tspan x="1200.15" y="574.1"/></text><text x="44.21" y="126.34"><tspan x="44.21" y="126.34"/></text><text transform="scale(4.0128 .2492)" x="208.1" y="157.81"/><text x="625.48" y="46.34"><tspan x="625.48" y="46.34"/></text><text transform="scale(4.0128 .2492)" x="352.95" y="-163.22"/><text x="-446.1" y="-134.92"><tspan x="-446.1" y="-134.92"/></text><text transform="scale(4.0128 .2492)" x="85.91" y="-890.58"/><text x="651.95" y="-351.39"><tspan x="651.95" y="-351.39"/></text><text transform="scale(4.0128 .2492)" x="359.55" y="-1759.24"/><text x="1233.22" y="-431.4"><tspan x="1233.22" y="-431.4"/></text><text transform="scale(4.0128 .2492)" x="504.4" y="-2080.28"/><text x="844.1" y="-903.8"><tspan x="844.1" y="-903.8"/></text><text transform="scale(4.0128 .2492)" x="407.43" y="-3975.93"/><text x="1425.36" y="-983.8"><tspan x="1425.36" y="-983.8"/></text><text transform="scale(4.0128 .2492)" x="552.28" y="-4296.96"/><text x="-407.44" y="430.92"><tspan x="-407.44" y="430.92"/></text><text x="-836.35" y="-66.16"><tspan x="-836.35" y="-66.16"/></text><text transform="scale(4.0128 .2492)" x="109.31" y="-828.37"/><text x="-1484.11" y="-834.11"><tspan x="-1484.11" y="-834.11"/></text><text transform="scale(4.0128 .2492)" x="-52.12" y="-3910.03"/><text x="-777.77" y="-989.74"><tspan x="-777.77" y="-989.74"/></text><text transform="scale(4.0128 .2492)" x="123.9" y="-4534.56"/><text x="120.14" y="221.79"><tspan x="120.14" y="221.79"/></text><text transform="scale(4.0128 .2492)" x="227.02" y="540.86"/><text x="701.41" y="141.79"><tspan x="701.41" y="141.79"/></text><text transform="scale(4.0128 .2492)" x="371.87" y="219.83"/><text x="-370.17" y="-39.467"><tspan x="-370.17" y="-39.467"/></text><text transform="scale(4.0128 .2492)" x="104.83" y="-507.52"/><text x="727.88" y="-255.94"><tspan x="727.88" y="-255.94"/></text><text transform="scale(4.0128 .2492)" x="378.47" y="-1376.19"/><text x="1309.15" y="-335.95"><tspan x="1309.15" y="-335.95"/></text><text transform="scale(4.0128 .2492)" x="523.32" y="-1697.23"/><text x="920.03" y="-808.35"><tspan x="920.03" y="-808.35"/></text><text transform="scale(4.0128 .2492)" x="426.35" y="-3592.88"/><text x="1501.29" y="-888.35"><tspan x="1501.29" y="-888.35"/></text><text transform="scale(4.0128 .2492)" x="571.2" y="-3913.91"/><text x="-331.51" y="526.37"><tspan x="-331.51" y="526.37"/></text><text x="325.53" y="724.49"><tspan x="325.53" y="724.49"/></text><text transform="scale(4.0128 .2492)" x="278.2" y="2558.1"/><text x="906.8" y="644.49"><tspan x="906.8" y="644.49"/></text><text transform="scale(4.0128 .2492)" x="423.05" y="2237.07"/><text x="-164.78" y="463.23"><tspan x="-164.78" y="463.23"/></text><text transform="scale(4.0128 .2492)" x="156.01" y="1509.72"/><text x="933.27" y="246.76"><tspan x="933.27" y="246.76"/></text><text transform="scale(4.0128 .2492)" x="429.65" y="641.05"/><text x="1514.54" y="166.75"><tspan x="1514.54" y="166.75"/></text><text transform="scale(4.0128 .2492)" x="574.5" y="320.01"/><text x="1125.42" y="-305.65"><tspan x="1125.42" y="-305.65"/></text><text transform="scale(4.0128 .2492)" x="477.53" y="-1575.64"/><text x="1706.68" y="-385.65"><tspan x="1706.68" y="-385.65"/></text><text transform="scale(4.0128 .2492)" x="622.38" y="-1896.66"/><text x="-126.12" y="1029.07"><tspan x="-126.12" y="1029.07"/></text><text x="-618.2" y="646.39"><tspan x="-618.2" y="646.39"/></text><text transform="scale(4.0128 .2492)" x="43.03" y="2244.69"/><text x="-36.925" y="566.39"><tspan x="-36.925" y="566.39"/></text><text transform="scale(4.0128 .2492)" x="187.88" y="1923.67"/><text x="-1108.51" y="385.13"><tspan x="-1108.51" y="385.13"/></text><text transform="scale(4.0128 .2492)" x="-79.16" y="1196.31"/><text x="-10.455" y="168.66"><tspan x="-10.455" y="168.66"/></text><text transform="scale(4.0128 .2492)" x="194.47" y="327.64"/><text x="570.81" y="88.65"><tspan x="570.81" y="88.65"/></text><text transform="scale(4.0128 .2492)" x="339.32" y="6.606"/><text x="181.69" y="-383.75"><tspan x="181.69" y="-383.75"/></text><text transform="scale(4.0128 .2492)" x="242.35" y="-1889.04"/><text x="762.95" y="-463.75"><tspan x="762.95" y="-463.75"/></text><text transform="scale(4.0128 .2492)" x="387.2" y="-2210.07"/><text x="-1069.85" y="950.97"><tspan x="-1069.85" y="950.97"/></text><text x="-370.74" y="721.24"><tspan x="-370.74" y="721.24"/></text><text transform="scale(4.0128 .2492)" x="104.69" y="2545.03"/><text x="210.53" y="641.24"><tspan x="210.53" y="641.24"/></text><text transform="scale(4.0128 .2492)" x="249.54" y="2224.01"/><text x="-861.05" y="459.98"><tspan x="-861.05" y="459.98"/></text><text transform="scale(4.0128 .2492)" x="-17.498" y="1496.65"/><text x="237" y="243.51"><tspan x="237" y="243.51"/></text><text transform="scale(4.0128 .2492)" x="256.14" y="627.98"/><text x="818.27" y="163.5"><tspan x="818.27" y="163.5"/></text><text transform="scale(4.0128 .2492)" x="400.99" y="306.95"/><text x="429.15" y="-308.9"><tspan x="429.15" y="-308.9"/></text><text transform="scale(4.0128 .2492)" x="304.02" y="-1588.7"/><text x="1010.41" y="-388.9"><tspan x="1010.41" y="-388.9"/></text><text transform="scale(4.0128 .2492)" x="448.87" y="-1909.73"/><text x="-822.39" y="1025.82"><tspan x="-822.39" y="1025.82"/></text><text x="-1236.78" y="38.98"><tspan x="-1236.78" y="38.98"/></text><text transform="scale(4.0128 .2492)" x="-111.13" y="-192.74"/><text x="-655.51" y="-41.02"><tspan x="-655.51" y="-41.02"/></text><text transform="scale(4.0128 .2492)" x="33.722" y="-513.77"/><text x="-1727.09" y="-222.28"><tspan x="-1727.09" y="-222.28"/></text><text transform="scale(4.0128 .2492)" x="-233.32" y="-1241.12"/><text x="-629.04" y="-438.75"><tspan x="-629.04" y="-438.75"/></text><text transform="scale(4.0128 .2492)" x="40.32" y="-2109.79"/><text x="-47.773" y="-518.76"><tspan x="-47.773" y="-518.76"/></text><text transform="scale(4.0128 .2492)" x="185.17" y="-2430.83"/><text x="-436.89" y="-991.16"><tspan x="-436.89" y="-991.16"/></text><text transform="scale(4.0128 .2492)" x="88.2" y="-4326.48"/><text x="144.37" y="-1071.16"><tspan x="144.37" y="-1071.16"/></text><text transform="scale(4.0128 .2492)" x="233.05" y="-4647.5"/><text x="-1688.43" y="343.56"><tspan x="-1688.43" y="343.56"/></text><text x="-2117.34" y="-153.51"><tspan x="-2117.34" y="-153.51"/></text><text transform="scale(4.0128 .2492)" x="-209.92" y="-1178.91"/><text x="-2765.11" y="-921.47"><tspan x="-2765.11" y="-921.47"/></text><text transform="scale(4.0128 .2492)" x="-371.34" y="-4260.58"/><text x="-2058.76" y="-1077.1"><tspan x="-2058.76" y="-1077.1"/></text><text transform="scale(4.0128 .2492)" x="-195.32" y="-4885.1"/><text x="-1586.07" y="208.2"><tspan x="-1586.07" y="208.2"/></text><text transform="scale(4.0128 .2492)" x="-198.17" y="486.31"/><text x="-1004.8" y="128.2"><tspan x="-1004.8" y="128.2"/></text><text transform="scale(4.0128 .2492)" x="-53.32" y="165.28"/><text x="-2076.38" y="-53.06"><tspan x="-2076.38" y="-53.06"/></text><text transform="scale(4.0128 .2492)" x="-320.36" y="-562.07"/><text x="-978.33" y="-269.53"><tspan x="-978.33" y="-269.53"/></text><text transform="scale(4.0128 .2492)" x="-46.721" y="-1430.74"/><text x="-397.06" y="-349.54"><tspan x="-397.06" y="-349.54"/></text><text transform="scale(4.0128 .2492)" x="98.13" y="-1751.78"/><text x="-786.18" y="-821.94"><tspan x="-786.18" y="-821.94"/></text><text transform="scale(4.0128 .2492)" x="1.159" y="-3647.43"/><text x="-204.92" y="-901.94"><tspan x="-204.92" y="-901.94"/></text><text transform="scale(4.0128 .2492)" x="146.01" y="-3968.45"/><text x="-2037.72" y="512.78"><tspan x="-2037.72" y="512.78"/></text><text x="729.64" y="231.36"><tspan x="729.64" y="231.36"/></text><text transform="scale(4.0128 .2492)" x="378.91" y="579.26"/><text x="1310.91" y="151.36"><tspan x="1310.91" y="151.36"/></text><text transform="scale(4.0128 .2492)" x="523.76" y="258.22"/><text x="239.33" y="-29.9"><tspan x="239.33" y="-29.9"/></text><text transform="scale(4.0128 .2492)" x="256.72" y="-469.13"/><text x="1337.38" y="-246.37"><tspan x="1337.38" y="-246.37"/></text><text transform="scale(4.0128 .2492)" x="530.36" y="-1337.8"/><text x="1918.65" y="-326.37"><tspan x="1918.65" y="-326.37"/></text><text transform="scale(4.0128 .2492)" x="675.21" y="-1658.83"/><text x="1529.53" y="-798.77"><tspan x="1529.53" y="-798.77"/></text><text transform="scale(4.0128 .2492)" x="578.24" y="-3554.48"/><text x="2110.79" y="-878.78"><tspan x="2110.79" y="-878.78"/></text><text transform="scale(4.0128 .2492)" x="723.09" y="-3875.52"/><text x="277.99" y="535.94"><tspan x="277.99" y="535.94"/></text><text x="729.64" y="231.36"><tspan x="729.64" y="231.36"/></text><text transform="scale(4.0128 .2492)" x="378.91" y="579.26"/><text x="1310.91" y="151.36"><tspan x="1310.91" y="151.36"/></text><text transform="scale(4.0128 .2492)" x="523.76" y="258.22"/><text x="239.33" y="-29.9"><tspan x="239.33" y="-29.9"/></text><text transform="scale(4.0128 .2492)" x="256.72" y="-469.13"/><text x="1337.38" y="-246.37"><tspan x="1337.38" y="-246.37"/></text><text transform="scale(4.0128 .2492)" x="530.36" y="-1337.8"/><text x="1918.65" y="-326.37"><tspan x="1918.65" y="-326.37"/></text><text transform="scale(4.0128 .2492)" x="675.21" y="-1658.83"/><text x="1529.53" y="-798.77"><tspan x="1529.53" y="-798.77"/></text><text transform="scale(4.0128 .2492)" x="578.24" y="-3554.48"/><text x="2110.79" y="-878.78"><tspan x="2110.79" y="-878.78"/></text><text transform="scale(4.0128 .2492)" x="723.09" y="-3875.52"/><text x="277.99" y="535.94"><tspan x="277.99" y="535.94"/></text><text x="729.64" y="231.36"><tspan x="729.64" y="231.36"/></text><text transform="scale(4.0128 .2492)" x="378.91" y="579.26"/><text x="1310.91" y="151.36"><tspan x="1310.91" y="151.36"/></text><text transform="scale(4.0128 .2492)" x="523.76" y="258.22"/><text x="239.33" y="-29.9"><tspan x="239.33" y="-29.9"/></text><text transform="scale(4.0128 .2492)" x="256.72" y="-469.13"/><text x="1337.38" y="-246.37"><tspan x="1337.38" y="-246.37"/></text><text transform="scale(4.0128 .2492)" x="530.36" y="-1337.79"/><text x="1918.65" y="-326.37"><tspan x="1918.65" y="-326.37"/></text><text transform="scale(4.0128 .2492)" x="675.21" y="-1658.82"/><text x="1529.53" y="-798.77"><tspan x="1529.53" y="-798.77"/></text><text transform="scale(4.0128 .2492)" x="578.24" y="-3554.46"/><text x="2110.79" y="-878.78"><tspan x="2110.79" y="-878.78"/></text><text transform="scale(4.0128 .2492)" x="723.09" y="-3875.5"/><text x="277.99" y="535.94"><tspan x="277.99" y="535.94"/></text><text x="729.64" y="231.36"><tspan x="729.64" y="231.36"/></text><text transform="scale(4.0128 .2492)" x="378.91" y="579.26"/><text x="1310.91" y="151.36"><tspan x="1310.91" y="151.36"/></text><text transform="scale(4.0128 .2492)" x="523.76" y="258.22"/><text x="239.33" y="-29.9"><tspan x="239.33" y="-29.9"/></text><text transform="scale(4.0128 .2492)" x="256.72" y="-469.13"/><text x="1337.38" y="-246.37"><tspan x="1337.38" y="-246.37"/></text><text transform="scale(4.0128 .2492)" x="530.36" y="-1337.8"/><text x="1918.65" y="-326.37"><tspan x="1918.65" y="-326.37"/></text><text transform="scale(4.0128 .2492)" x="675.21" y="-1658.83"/><text x="1529.53" y="-798.77"><tspan x="1529.53" y="-798.77"/></text><text transform="scale(4.0128 .2492)" x="578.24" y="-3554.48"/><text x="2110.79" y="-878.78"><tspan x="2110.79" y="-878.78"/></text><text transform="scale(4.0128 .2492)" x="723.09" y="-3875.52"/><text x="277.99" y="535.94"><tspan x="277.99" y="535.94"/></text><g fill-rule="evenodd"><g fill="#d23638"><path d="m471.95 253.05c0 120.9-98.01 218.9-218.9 218.9-120.9 0-218.9-98.01-218.9-218.9 0-120.9 98.01-218.9 218.9-218.9 120.9 0 218.9 98.01 218.9 218.9"/><path d="m256 256h121.11v121.11h-121.11z"/></g><g fill="#f68d5c"><path d="m256 377.09v94.81c44.929-.594 86.59-14.725 121.09-38.5v-56.31z"/><path d="m377.09 256v121.09h56.31c23.776-34.505 37.906-76.16 38.5-121.09z"/><path d="m72.69 377.09c16.524 23.981 37.684 44.523 62.22 60.28v-60.28z"/><path d="m134.89-377.11h121.11v121.11h-121.11z" transform="scale(1 -1)"/><path d="m256 134.89h121.11v121.11h-121.11z"/><path d="m377.09 72.69v62.22h60.28c-15.758-24.534-36.3-45.694-60.28-62.22"/><path d="m68.72 134.91c-21.889 34.08-34.563 74.64-34.563 118.16 0 .986.018 1.954.031 2.938h100.72v-121.09h-66.19"/><path d="m253.06 34.16c-43.51 0-84.08 12.674-118.16 34.563v66.19h121.09v-100.72c-.983-.013-1.951-.031-2.938-.031"/></g><path d="m256 1c-140.83 0-255 114.17-255 255s114.17 255 255 255 255-114.17 255-255-114.17-255-255-255m8.827 44.931c120.9 0 218.9 98 218.9 218.9s-98 218.9-218.9 218.9-218.93-98-218.93-218.9 98.03-218.9 218.93-218.9" fill-opacity=".067"/><g fill-opacity=".129"><path d="m256 4.43c-138.94 0-251.57 112.63-251.57 251.57s112.63 251.57 251.57 251.57 251.57-112.63 251.57-251.57-112.63-251.57-251.57-251.57m5.885 38.556c120.9 0 218.9 98 218.9 218.9s-98 218.9-218.9 218.9-218.93-98-218.93-218.9 98.03-218.9 218.93-218.9"/><path d="m256 8.36c-136.77 0-247.64 110.87-247.64 247.64s110.87 247.64 247.64 247.64 247.64-110.87 247.64-247.64-110.87-247.64-247.64-247.64m2.942 31.691c120.9 0 218.9 98 218.9 218.9s-98 218.9-218.9 218.9-218.93-98-218.93-218.9 98.03-218.9 218.93-218.9"/></g><path d="m253.04 7.86c-135.42 0-245.19 109.78-245.19 245.19 0 135.42 109.78 245.19 245.19 245.19 135.42 0 245.19-109.78 245.19-245.19 0-135.42-109.78-245.19-245.19-245.19zm0 26.297c120.9 0 218.9 98 218.9 218.9s-98 218.9-218.9 218.9-218.93-98-218.93-218.9 98.03-218.9 218.93-218.9z" fill="#fff" stroke="#000" stroke-opacity=".31" stroke-width="4.904"/></g><text x="729.64" y="231.36"><tspan x="729.64" y="231.36"/></text><text transform="scale(4.0128 .2492)" x="378.91" y="579.26"/><text x="1310.91" y="151.36"><tspan x="1310.91" y="151.36"/></text><text transform="scale(4.0128 .2492)" x="523.76" y="258.22"/><text x="239.33" y="-29.9"><tspan x="239.33" y="-29.9"/></text><text transform="scale(4.0128 .2492)" x="256.72" y="-469.13"/><text x="1337.38" y="-246.37"><tspan x="1337.38" y="-246.37"/></text><text transform="scale(4.0128 .2492)" x="530.36" y="-1337.8"/><text x="1918.65" y="-326.37"><tspan x="1918.65" y="-326.37"/></text><text transform="scale(4.0128 .2492)" x="675.21" y="-1658.83"/><text x="1529.53" y="-798.77"><tspan x="1529.53" y="-798.77"/></text><text transform="scale(4.0128 .2492)" x="578.24" y="-3554.48"/><text x="2110.79" y="-878.78"><tspan x="2110.79" y="-878.78"/></text><text transform="scale(4.0128 .2492)" x="723.09" y="-3875.52"/><text x="277.99" y="535.94"><tspan x="277.99" y="535.94"/></text><path d="m320.25 114.41c-.705.06-1.384.456-2 .656-3.058 12.548-14.828 12.04-12.344 15.219 6.901 8.824 2.176 2.113 6.938 8.75-10.454 12.476-13.722 35.883-15.406 55.03-13.799 3.217-16.816 2.466-18 12.219 22.498 29.983 12.792 17.372 22.781 30.13-4.765 21.982-1.744 59.15-9.438 72.53-33.558-33.591-67.35-71.74-102.69-103.12-32.884-17.283-30.357 43.12-39.844 51.38-11.12 3.551-9.02 3.499-13.688 10.594 23.778 29.22 14.355 17.288 23.75 29.5 1.224 1.591 2.032 6.43.938 8.5-5.174 15.171.167 37.634-7.625 45.781 8.411 11.02 6.476 8.261 8.531 11.156-8.727 1.971-21.813 15.561-31.75 23.438-3.925 5.437-1.234 7.531-3.344 11.938 55.32 54.24 60.34 59.79 66.5 65.69 18.916 5.33 38.879 8.156 59.5 8.156 114.83 0 209-88.4 218.16-200.87-18.852-19.545-54.875-57.1-149.69-156.25-.448-.346-.858-.442-1.281-.406" opacity=".25"/><path d="m384.88 393.29c-.053-3.636-4.833-8.493-17.503-17.786l-17.43-12.784h-63.384l-17.43 12.784c-12.67 9.293-17.45 14.15-17.503 17.786l-.073 5h133.4l-.073-5m-160-.07c0-3.229-4.67-9.693-12.848-17.786l-12.848-12.714h-46.44l-12.848 12.714c-8.179 8.093-12.848 14.558-12.848 17.786v5.072h97.824v-5.072m124.5-41.879c0-3.831-15.492-120.25-16.755-125.91-1-4.504-2.438-5-14.371-5s-13.366.499-14.371 5c-1.264 5.664-16.755 122.08-16.755 125.91 0 1.713 9.671 2.485 31.13 2.485 21.455 0 31.13-.772 31.13-2.485m-151.18-.199c0-4.085-6.689-57.76-7.908-63.46-.965-4.509-2.379-5-14.325-5-11.947 0-13.361.494-14.325 5-1.219 5.698-7.908 59.37-7.908 63.46 0 1.918 6.347 2.684 22.23 2.684 15.886 0 22.23-.766 22.23-2.684m15.07-79.969c6.06-6.06 1.411-15.171-7.729-15.171-5.901 0-6.264-1.627-1.708-7.651 1.795-2.374 3.258-8.877 3.25-14.451-.046-31.747-40.4-43.22-58.02-16.491-5.074 7.696-5.602 24.799-.955 30.943 4.588 6.07 4.22 7.258-2.484 8.06-7.584.906-11.687 7.02-8.311 12.376 2.139 3.395 6.961 3.968 37.843 4.499 25.645.441 36.14-.141 38.11-2.112m142.29-62.25c6.493-6.493 1.3-15.171-9.08-15.171-4.315 0-6.103-.939-5.378-2.826 2.32-6.05 6.579-43.752 5.314-47.05-.969-2.525-4.418-3.485-12.523-3.485-9.704 0-11.186-.589-11.186-4.447 0-2.964 1.482-4.447 4.447-4.447 2.964 0 4.447-1.482 4.447-4.447 0-2.964-1.482-4.447-4.447-4.447-2.964 0-4.447-1.482-4.447-4.447 0-2.964-1.482-4.447-4.447-4.447-2.964 0-4.447 1.482-4.447 4.447 0 2.964-1.482 4.447-4.447 4.447-2.964 0-4.447 1.482-4.447 4.447 0 2.964 1.482 4.447 4.447 4.447 2.964 0 4.447 1.482 4.447 4.447 0 3.857-1.482 4.447-11.186 4.447-8.106 0-11.554.96-12.523 3.485-1.247 3.249 2.98 40.964 5.255 46.894.639 1.666-1.678 2.94-6.155 3.382-8.686.859-13.196 6.676-9.601 12.382 2.139 3.395 6.961 3.968 37.843 4.499 25.645.441 36.14-.141 38.11-2.112" fill="#fff"/></svg>