<?xml version="1.0" encoding="utf-8"?>
<!-- Svg Vector Icons : http://www.onlinewebfonts.com/icon -->
<!DOCTYPE svg PUBLIC "-//W3C//DTD SVG 1.1//EN" "http://www.w3.org/Graphics/SVG/1.1/DTD/svg11.dtd">
<svg version="1.1" xmlns="http://www.w3.org/2000/svg" xmlns:xlink="http://www.w3.org/1999/xlink" x="0px" y="0px" viewBox="0 0 256 256" enable-background="new 0 0 256 256" xml:space="preserve">
<metadata> Svg Vector Icons : http://www.onlinewebfonts.com/icon </metadata>
<g><g><path fill="#000000" d="M127.6,246C62.7,245.9,9.9,192.7,10,127.6C10.1,62.7,63.3,9.9,128.4,10c64.9,0.1,117.8,53.3,117.6,118.4C245.9,193.3,192.7,246.1,127.6,246z M171.3,129.9c0-15.6-0.2-31.2,0.1-46.8c0.2-8.1-3.3-11.3-11.2-11.2c-7.5,0-11.7,2.4-11.6,10.8c0.2,30.9,0.2,61.8,0,92.7c0,8.4,4.2,10.8,11.7,10.8c7.8,0,11.3-3.2,11.1-11.3C171,159.8,171.3,144.8,171.3,129.9z M109,129.1c0-15.6-0.1-31.2,0.1-46.7c0.1-7.7-3.7-10.5-10.9-10.5c-7.4,0-11.7,2.2-11.7,10.7c0.2,30.8,0.2,61.7,0,92.6c-0.1,8.3,3.7,11,11.4,11c7.8,0,11.4-3.1,11.2-11.2C108.9,159.6,109,144.4,109,129.1z M69.7,141.7c0,5.4-0.6,10.8,0.2,16c0.4,2.9,2.7,7.4,4.8,7.9c5.9,1.3,6-3.6,5.9-7.8c0-19,0-38,0-57.1c0-4,0.7-8.6-5.6-8.6c-6.4,0-5.2,4.7-5.4,8.7c-0.4,8.7,2.7,17.9-8.4,23.8c-5,2.7-3.1,9.6,1.7,13.6C64.9,139.6,67.3,140.4,69.7,141.7z M176.9,129.2c0,9.6-0.4,19.3,0.2,28.9c0.2,2.7,3.4,5.2,5.2,7.8c1.9-2.5,4.3-4.7,5.6-7.4c0.8-1.8,0.1-4.3,0.2-6.5c0.1-5.7-1.3-11.1,6.6-14.3c6.2-2.5,6.1-12.5-0.2-15.2c-7-3-6.5-7.8-6.4-13.3c0.1-3.4,0.7-7-0.2-10.2c-0.7-2.6-3.3-4.7-5.1-7c-2,2.4-5.5,4.8-5.7,7.3C176.5,109.2,176.9,119.2,176.9,129.2z M115.3,118.2c0,7.4,0,14.2,0,21.6c9.2,0,18.1,0,27.4,0c0-7.4,0-14.2,0-21.6C133.4,118.2,124.5,118.2,115.3,118.2z"/></g></g>
</svg>