<svg viewBox="0 0 512 512" xmlns="http://www.w3.org/2000/svg"><path d="m471.95 253.05c0 120.9-98.01 218.9-218.9 218.9-120.9 0-218.9-98.01-218.9-218.9 0-120.9 98.01-218.9 218.9-218.9 120.9 0 218.9 98.01 218.9 218.9" fill="#f38725" fill-rule="evenodd"/><path d="m289.47 73.78c-1.113.017-2.166.555-2.844 1.438-.677.882-.896 2.01-.625 3.094 3.338 13.147 2.067 23.596-1.969 32.781-4.04 9.185-10.982 17.14-19.281 24.656-16.6 15.03-38.51 27.808-50.688 46.09-8.609 12.927-6.389 27.16 1.844 40.625 4.631 7.574 11.07 15.178 18.656 22.938.329.34.667.659 1 1 .613.62 1.217 1.252 1.844 1.875.241.241.476.477.719.719.083.082.167.168.25.25.052.053.104.103.156.156.281.281.56.562.844.844.052.053.104.103.156.156.199.199.393.394.594.594.59.594 1.21 1.186 1.813 1.781.063.063.124.125.188.188.124.126.251.249.375.375.01.011.021.021.031.031.306.306.597.631.906.938.312.312.623.625.938.938.322.323.643.645.969.969.052.053.104.103.156.156.281.281.56.562.844.844.251.252.497.498.75.75.413.415.831.834 1.25 1.25.352.353.706.709 1.063 1.063.312.312.623.625.938.938.322.323.643.645.969.969.052.053.104.103.156.156.281.281.56.562.844.844.251.252.497.498.75.75.611.614 1.251 1.228 1.875 1.844l.125.125c.124.126.251.249.375.375.01.011.021.021.031.031.286.286.555.589.844.875.322.323.643.645.969.969.052.053.104.103.156.156.281.281.56.562.844.844.251.252.497.498.75.75.509.512 1.044 1.018 1.563 1.531.143.146.293.291.438.438.134.137.272.269.406.406l.031.031c.093.094.188.187.281.281l.031.031c.156.156.312.313.469.469.114.115.23.229.344.344l.031.031c.203.203.389.422.594.625.343.344.684.687 1.031 1.031.338.338.69.661 1.031 1 .042.043.083.082.125.125.083.084.167.166.25.25l.031.031c.371.371.749.753 1.125 1.125.016.016.016.047.031.063-8.954.608-17.929 1.047-26.469 1.281-.061-.045-.124-.084-.188-.125-.26-.407-.593-.741-1-1-.257-.407-.597-.738-1-1-.251-.398-.578-.739-.969-1-.253-.402-.606-.737-1-1-.261-.416-.62-.764-1.031-1.031-.26-.402-.599-.739-1-1-.262-.405-.595-.769-1-1.031-.252-.383-.588-.714-.969-.969-.258-.407-.6-.733-1-1-.267-.421-.613-.791-1.031-1.063-.263-.398-.6-.739-1-1-.265-.4-.598-.738-1-1-.258-.39-.611-.709-1-.969-.266-.41-.623-.763-1.031-1.031-.265-.396-.602-.738-1-1-.261-.391-.578-.739-.969-1-.265-.406-.597-.731-1-1-.266-.408-.595-.76-1-1.031-.266-.4-.601-.733-1-1-.604-.91-1.596-1.537-2.75-1.625-.03-.002-1.02-.064-2.625-.063-7.08.007-27.671 1.176-51.938 12.906-2.359 1.141-4.182 2.262-5.625 3.656s-2.622 3.373-2.5 5.625c.117 2.164 1.386 3.833 2.781 5 .303.34.603.656.938.938.282.32.595.638.906.906.314.366.649.7 1 1 .345.4.706.774 1.094 1.094.029.032.064.062.094.094.006.005.025-.005.031 0 .002.045.033.07.063.094.222.233.451.454.688.656.332.384.691.753 1.063 1.063.039.045.085.082.125.125.006.005.025-.005.031 0 .025.027.037.067.063.094.014.018.015.049.031.063.029.023.064.039.094.063.192.193.392.391.594.563.085.097.162.189.25.281.019.03.037.042.063.063.21.216.434.436.656.625.081.094.166.192.25.281.021.034.065.07.094.094.011.009.02.022.031.031.18.183.373.337.563.5.107.127.199.256.313.375.024.038.061.068.094.094.197.2.418.386.625.563.081.094.165.191.25.281.028.057.049.12.094.156.069.056.148.102.219.156.207.199.409.39.625.563.015.017.016.046.031.063.025.088.062.168.125.219.076.061.173.097.25.156.192.182.363.371.563.531.015.017.016.046.031.063.028.096.087.195.156.25.099.079.211.143.313.219.083.077.166.146.25.219.089.106.188.213.281.313.032.096.085.162.156.219.081.065.167.125.25.188.115.107.226.213.344.313.073.084.143.169.219.25.035.104.111.189.188.25.081.065.168.125.25.188.164.151.331.302.5.438.015.017.016.046.031.063.029.134.126.238.219.313.117.094.254.16.375.25.055.049.101.109.156.156.081.095.166.191.25.281.038.126.096.24.188.313.179.144.374.272.563.406.061.051.126.107.188.156.015.017.016.046.031.063.031.156.111.289.219.375.178.143.375.273.563.406.071.083.145.171.219.25.045.133.121.265.219.344.195.156.419.293.625.438.043.049.081.109.125.156.04.164.135.314.25.406.189.152.394.266.594.406.045.052.078.106.125.156.042.172.16.309.281.406.219.176.454.339.688.5.015.017.016.046.031.063.042.185.152.334.281.438.212.17.431.344.656.5.01.011.021.02.031.031.044.194.146.36.281.469.215.173.458.311.688.469.01.011.021.021.031.031.045.204.139.386.281.5.208.166.436.316.656.469.043.223.19.408.344.531.087.069.192.121.281.188-.588 1.739-.606 3.716 0 5.406.649 1.812 1.773 3.252 3.219 4.5.045.049.079.108.125.156.006.005.025-.005.031 0 .188.195.391.377.594.563.364.422.758.84 1.188 1.219.317.352.667.679 1.031 1 .319.355.664.708 1.031 1.031.317.352.667.679 1.031 1 .31.345.613.686.969 1 .402.453.832.879 1.313 1.281.241.253.483.514.75.75.287.323.611.611.938.906.353.406.74.792 1.156 1.156.316.352.666.68 1.031 1 .307.343.646.688 1 1 .389.437.787.862 1.25 1.25.25.265.502.535.781.781.388.438.817.862 1.281 1.25.253.268.53.533.813.781.109.123.197.256.313.375-2.538 1.126-4.646 2.347-6.313 3.75-3.228 2.718-4.869 6.959-3.594 10.563h.031c.669 1.89 1.831 3.463 3.344 4.844.365.403.768.784 1.188 1.156.364.389.741.764 1.156 1.125.249.259.509.504.781.75.367.401.766.786 1.188 1.156.291.308.583.617.906.906.338.365.71.723 1.094 1.063.268.285.548.574.844.844.364.4.77.786 1.188 1.156.332.354.688.701 1.063 1.031.289.306.585.618.906.906.33.357.689.699 1.063 1.031.326.35.663.673 1.031 1 .332.356.687.699 1.063 1.031.333.355.654.7 1.031 1.031.335.355.684.7 1.063 1.031.296.312.608.613.938.906.278.299.566.594.875.875.415.458.858.894 1.344 1.313.244.253.484.51.75.75.37.403.793.783 1.219 1.156.047.049.077.108.125.156.006.005.025-.005.031 0 .334.339.657.683 1.031 1 .211.215.429.419.656.625.347.38.729.741 1.125 1.094.277.298.567.594.875.875.375.414.786.806 1.219 1.188.275.291.54.6.844.875.351.383.756.738 1.156 1.094.333.356.654.73 1.031 1.063.11.117.229.23.344.344-4.902-.136-9.709-.367-14.375-.625-.079-.069-.165-.123-.25-.188-.266-.387-.595-.763-1-1.063-.274-.39-.615-.734-1.031-1.031-.249-.345-.544-.666-.906-.938-.262-.379-.604-.739-1-1.031-.265-.381-.598-.709-1-1-.245-.353-.543-.662-.906-.938-.258-.386-.603-.735-1-1.031-.263-.392-.593-.734-1-1.031-.247-.362-.566-.689-.938-.969-.247-.369-.593-.685-.969-.969-.25-.382-.582-.709-.969-1-.267-.417-.603-.787-1.031-1.094-.249-.363-.562-.694-.938-.969-.251-.377-.583-.686-.969-.969-.261-.397-.59-.771-1-1.063-.247-.366-.593-.664-.969-.938-.253-.391-.571-.744-.969-1.031-.258-.392-.594-.747-1-1.031-.269-.4-.607-.779-1.031-1.063-.238-.339-.522-.654-.875-.906-.259-.4-.587-.747-1-1.031-.25-.378-.549-.728-.938-1h-.031c-.242-.366-.532-.703-.906-.969l-10.75-2.594c-12.495-.024-29.988 5.311-40.41 12.13-2.604 1.703-4.816 3.476-6.375 5.656s-2.479 5.245-1.438 8.06c.539 1.457 1.472 2.656 2.656 3.688.311.354.664.682 1.031 1 .338.385.69.751 1.094 1.094.278.307.586.596.906.875.325.373.675.729 1.063 1.063.327.368.675.702 1.063 1.031.297.33.622.639.969.938.342.387.715.75 1.125 1.094.296.323.625.645.969.938.318.353.656.714 1.031 1.031.322.356.651.681 1.031 1 .325.357.679.711 1.063 1.031.278.302.554.6.875.875.362.407.75.796 1.188 1.156.27.29.565.579.875.844.301.337.616.665.969.969.332.375.698.728 1.094 1.063.315.347.661.687 1.031 1 .293.323.595.644.938.938.267.301.566.569.875.844.354.417.755.788 1.188 1.156.246.274.501.529.781.781.339.403.745.766 1.156 1.125.32.365.681.735 1.063 1.063.304.341.642.661 1 .969.319.361.653.707 1.031 1.031.289.325.6.611.938.906.304.349.64.685 1 1 .31.356.663.679 1.031 1 .319.366.651.703 1.031 1.031.289.328.63.64.969.938.329.379.698.755 1.094 1.094.327.368.672.701 1.063 1.031.311.345.633.689 1 1 .278.309.583.593.906.875.33.378.698.724 1.094 1.063.317.355.655.712 1.031 1.031.304.338.611.663.969.969.311.349.663.685 1.031 1 .314.35.66.684 1.031 1 .322.359.648.708 1.031 1.031.324.358.678.709 1.063 1.031.259.282.546.553.844.813.313.359.658.708 1.031 1.031.299.34.615.66.969.969.317.364.684.704 1.063 1.031.338.383.718.751 1.125 1.094.296.326.591.641.938.938.301.338.613.662.969.969.321.364.679.704 1.063 1.031.305.34.64.66 1 .969.295.331.59.668.938.969.296.337.62.632.969.938.329.381.697.721 1.094 1.063.334.377.692.755 1.094 1.094.255.28.52.554.813.813.312.363.657.704 1.031 1.031.336.387.719.747 1.125 1.094.281.313.578.62.906.906.314.36.656.706 1.031 1.031.313.356.659.679 1.031 1 .317.359.654.676 1.031 1 .296.333.62.666.969.969.314.357.657.709 1.031 1.031.291.328.596.639.938.938.33.379.697.722 1.094 1.063.317.355.654.71 1.031 1.031.295.327.591.639.938.938.329.373.667.727 1.063 1.063.313.348.66.685 1.031 1 .316.349.657.684 1.031 1 .322.354.649.711 1.031 1.031.265.29.538.577.844.844.298.34.616.659.969.969.329.378.698.722 1.094 1.063.317.356.654.709 1.031 1.031.288.321.569.644.906.938.304.347.67.653 1.031.969.291.332.594.666.938.969.32.37.679.697 1.063 1.031.315.358.656.707 1.031 1.031.297.336.618.663.969.969.276.314.583.619.906.906.178.208.362.399.563.594 12.285 2.14 24.915 3.281 37.813 3.281 120.34 0 217.98-97.12 218.88-217.25-.024-.017-.039-.045-.063-.063-.367-.428-.625-.719-.625-.719-.137-.135-.283-.233-.438-.344-.339-.393-.563-.625-.563-.625-.106-.105-.226-.191-.344-.281-.375-.437-.656-.719-.656-.719-.128-.126-.263-.239-.406-.344-.34-.394-.594-.656-.594-.656-.128-.126-.263-.239-.406-.344-.34-.394-.594-.656-.594-.656-.128-.126-.263-.239-.406-.344-.34-.394-.563-.656-.563-.656-.112-.11-.252-.187-.375-.281-.367-.428-.625-.719-.625-.719-.137-.135-.283-.233-.438-.344-.339-.393-.563-.625-.563-.625-.128-.126-.263-.239-.406-.344-.352-.408-.594-.656-.594-.656-.128-.126-.263-.239-.406-.344-.34-.394-.594-.656-.594-.656-.128-.126-.263-.239-.406-.344-.34-.394-.594-.656-.594-.656-.128-.126-.263-.239-.406-.344-.34-.394-.563-.656-.563-.656-.129-.128-.293-.238-.438-.344-.34-.394-.563-.656-.563-.656-.112-.11-.252-.187-.375-.281-.367-.428-.625-.688-.625-.688-.128-.126-.263-.239-.406-.344-.352-.408-.594-.656-.594-.656-.128-.126-.263-.239-.406-.344-.34-.394-.594-.656-.594-.656-.128-.126-.263-.239-.406-.344-.34-.394-.594-.656-.594-.656-.128-.126-.263-.239-.406-.344-.34-.394-.563-.656-.563-.656-.129-.128-.293-.238-.438-.344-.34-.394-.563-.656-.563-.656-.112-.11-.252-.187-.375-.281-.367-.428-.625-.719-.625-.719-.137-.135-.283-.233-.438-.344-.338-.391-.563-.625-.563-.625-.106-.105-.226-.191-.344-.281-.375-.437-.656-.719-.656-.719-.128-.126-.263-.239-.406-.344-.34-.394-.594-.656-.594-.656-.128-.126-.263-.239-.406-.344-.34-.394-.594-.656-.594-.656-.128-.126-.263-.239-.406-.344-.34-.394-.563-.656-.563-.656-.112-.11-.252-.187-.375-.281-.367-.428-.625-.719-.625-.719-.137-.135-.283-.233-.438-.344-.339-.393-.563-.625-.563-.625-.128-.126-.263-.239-.406-.344-.352-.408-.594-.656-.594-.656-.128-.126-.263-.239-.406-.344-.34-.394-.594-.656-.594-.656-.128-.126-.263-.239-.406-.344-.34-.394-.594-.656-.594-.656-.128-.126-.263-.239-.406-.344-.34-.394-.563-.656-.563-.656-.112-.11-.252-.187-.375-.281-.367-.428-.625-.719-.625-.719-.112-.11-.252-.187-.375-.281-.367-.428-.625-.688-.625-.688-.128-.126-.263-.239-.406-.344-.352-.408-.594-.656-.594-.656-.128-.126-.263-.239-.406-.344-.34-.394-.594-.656-.594-.656-.128-.126-.263-.239-.406-.344-.34-.394-.594-.656-.594-.656-.128-.126-.263-.239-.406-.344-.34-.394-.563-.656-.563-.656-.129-.128-.293-.238-.438-.344-.34-.394-.563-.656-.563-.656-.112-.11-.252-.187-.375-.281-.367-.428-.625-.688-.625-.688-.128-.126-.263-.239-.406-.344-.352-.408-.594-.656-.594-.656-.106-.105-.226-.191-.344-.281-.375-.437-.656-.719-.656-.719-.128-.126-.263-.239-.406-.344-.34-.394-.594-.656-.594-.656-.128-.126-.263-.239-.406-.344-.34-.394-.594-.656-.594-.656-.128-.126-.263-.239-.406-.344-.34-.394-.563-.656-.563-.656-.112-.11-.252-.187-.375-.281-.367-.428-.625-.719-.625-.719-.137-.135-.283-.233-.438-.344-.339-.393-.563-.625-.563-.625-.106-.105-.226-.191-.344-.281-.375-.437-.656-.719-.656-.719-.128-.126-.263-.239-.406-.344-.34-.394-.594-.656-.594-.656-.128-.126-.263-.239-.406-.344-.34-.394-.594-.656-.594-.656-.128-.126-.263-.239-.406-.344-.34-.394-.563-.656-.563-.656-.112-.11-.252-.187-.375-.281-.367-.428-.625-.719-.625-.719-.137-.135-.283-.233-.438-.344-.339-.393-.563-.625-.563-.625-.128-.126-.263-.239-.406-.344-.352-.408-.594-.656-.594-.656-.128-.126-.263-.239-.406-.344-.34-.394-.594-.656-.594-.656-.128-.126-.263-.239-.406-.344-.34-.394-.594-.656-.594-.656-.128-.126-.263-.239-.406-.344-.34-.394-.563-.656-.563-.656-.129-.128-.293-.238-.438-.344-.339-.393-.563-.656-.563-.656-.112-.11-.252-.187-.375-.281-.367-.428-.625-.688-.625-.688-.128-.126-.263-.239-.406-.344-.352-.408-.594-.656-.594-.656-.128-.126-.263-.239-.406-.344-.34-.394-.594-.656-.594-.656-.128-.126-.263-.239-.406-.344-.34-.394-.594-.656-.594-.656-.128-.126-.263-.239-.406-.344-.34-.394-.563-.656-.563-.656-.129-.128-.293-.238-.438-.344-.34-.394-.563-.656-.563-.656-.112-.11-.252-.187-.375-.281-.367-.428-.625-.719-.625-.719-.137-.135-.283-.233-.438-.344-.338-.391-.563-.625-.563-.625-.106-.105-.226-.191-.344-.281-.375-.437-.656-.719-.656-.719-.128-.126-.263-.239-.406-.344-.34-.394-.594-.656-.594-.656-.128-.126-.263-.239-.406-.344-.34-.394-.594-.656-.594-.656-.128-.126-.263-.239-.406-.344-.34-.394-.563-.656-.563-.656-.112-.11-.252-.187-.375-.281-.367-.428-.625-.719-.625-.719-.137-.135-.283-.233-.438-.344-.339-.393-.563-.625-.563-.625-.106-.105-.226-.191-.344-.281-.375-.437-.656-.719-.656-.719-.128-.126-.263-.239-.406-.344-.34-.394-.594-.656-.594-.656-.128-.126-.263-.239-.406-.344-.34-.394-.594-.656-.594-.656-.128-.126-.263-.239-.406-.344-.34-.394-.563-.656-.563-.656-.112-.11-.252-.187-.375-.281-.367-.428-.625-.719-.625-.719-.112-.11-.252-.187-.375-.281-.367-.428-.625-.688-.625-.688-.128-.126-.263-.239-.406-.344-.352-.408-.594-.656-.594-.656-.128-.126-.263-.239-.406-.344-.34-.394-.594-.656-.594-.656-.128-.126-.263-.239-.406-.344-.34-.394-.594-.656-.594-.656-.128-.126-.263-.239-.406-.344-.34-.394-.563-.656-.563-.656-.129-.128-.293-.238-.438-.344-.34-.394-.563-.656-.563-.656-.112-.11-.252-.187-.375-.281-.367-.428-.625-.688-.625-.688-.128-.126-.263-.239-.406-.344-.352-.408-.594-.656-.594-.656-.106-.105-.226-.191-.344-.281-.375-.437-.656-.719-.656-.719-.128-.126-.263-.239-.406-.344-.34-.394-.594-.656-.594-.656-.128-.126-.263-.239-.406-.344-.34-.394-.594-.656-.594-.656-.128-.126-.263-.239-.406-.344-.34-.394-.563-.656-.563-.656-.112-.11-.252-.187-.375-.281-.367-.428-.625-.719-.625-.719-.137-.135-.283-.233-.438-.344-.339-.393-.563-.625-.563-.625-.106-.105-.226-.191-.344-.281-.375-.437-.656-.719-.656-.719-.128-.126-.263-.239-.406-.344-.34-.394-.594-.656-.594-.656-.128-.126-.263-.239-.406-.344-.34-.394-.594-.656-.594-.656-.128-.126-.263-.239-.406-.344-.34-.394-.563-.656-.563-.656-.112-.11-.252-.187-.375-.281-.367-.428-.625-.719-.625-.719-.137-.135-.283-.233-.438-.344-.339-.393-.563-.625-.563-.625-.128-.126-.263-.239-.406-.344-.352-.408-.594-.656-.594-.656-.128-.126-.263-.239-.406-.344-.34-.394-.594-.656-.594-.656-.128-.126-.263-.239-.406-.344-.34-.394-.594-.656-.594-.656-.128-.126-.263-.239-.406-.344-.34-.394-.563-.656-.563-.656-.129-.128-.293-.238-.438-.344-.339-.393-.563-.656-.563-.656-.112-.11-.252-.187-.375-.281-.367-.428-.625-.688-.625-.688-.128-.126-.263-.239-.406-.344-.352-.408-.594-.656-.594-.656-.128-.126-.263-.239-.406-.344-.34-.394-.594-.656-.594-.656-.128-.126-.263-.239-.406-.344-.34-.394-.594-.656-.594-.656-.128-.126-.263-.239-.406-.344-.34-.394-.563-.656-.563-.656-.129-.128-.293-.238-.438-.344-.34-.394-.563-.656-.563-.656-.112-.11-.252-.187-.375-.281-.367-.428-.625-.719-.625-.719-.137-.135-.283-.233-.438-.344-.338-.391-.563-.625-.563-.625-.106-.105-.226-.191-.344-.281-.375-.437-.656-.719-.656-.719-.128-.126-.263-.239-.406-.344-.34-.394-.594-.656-.594-.656-.128-.126-.263-.239-.406-.344-.34-.394-.594-.656-.594-.656-.128-.126-.263-.239-.406-.344-.34-.394-.563-.656-.563-.656-.112-.11-.252-.187-.375-.281-.367-.428-.625-.719-.625-.719-.137-.135-.283-.233-.438-.344-.339-.393-.563-.625-.563-.625-.106-.105-.226-.191-.344-.281-.375-.437-.656-.719-.656-.719-.128-.126-.263-.239-.406-.344-.34-.394-.594-.656-.594-.656-.128-.126-.263-.239-.406-.344-.34-.394-.594-.656-.594-.656-.128-.126-.263-.239-.406-.344-.34-.394-.563-.656-.563-.656-.112-.11-.252-.187-.375-.281-.367-.428-.625-.719-.625-.719-.112-.11-.252-.187-.375-.281-.367-.428-.625-.688-.625-.688-.128-.126-.263-.239-.406-.344-.352-.408-.594-.656-.594-.656-.128-.126-.263-.239-.406-.344-.34-.394-.594-.656-.594-.656-.128-.126-.263-.239-.406-.344-.34-.394-.594-.656-.594-.656-.128-.126-.263-.239-.406-.344-.34-.394-.563-.656-.563-.656-.129-.128-.293-.238-.438-.344-.34-.394-.563-.656-.563-.656-.112-.11-.252-.187-.375-.281-.367-.428-.625-.688-.625-.688-.128-.126-.263-.239-.406-.344-.352-.408-.594-.656-.594-.656-.106-.105-.226-.191-.344-.281-.375-.437-.656-.719-.656-.719-.128-.126-.263-.239-.406-.344-.34-.394-.594-.656-.594-.656-.128-.126-.263-.239-.406-.344-.34-.394-.594-.656-.594-.656-.128-.126-.263-.239-.406-.344-.34-.394-.563-.656-.563-.656-.112-.11-.252-.187-.375-.281-.367-.428-.625-.719-.625-.719-.137-.135-.283-.233-.438-.344-.339-.393-.563-.625-.563-.625-.106-.105-.226-.191-.344-.281-.375-.437-.656-.719-.656-.719-.128-.126-.263-.239-.406-.344-.34-.394-.594-.656-.594-.656-.128-.126-.263-.239-.406-.344-.34-.394-.594-.656-.594-.656-.128-.126-.263-.239-.406-.344-.34-.394-.563-.656-.563-.656-.112-.11-.252-.187-.375-.281-.367-.428-.625-.719-.625-.719-.137-.135-.283-.233-.438-.344-.339-.393-.563-.625-.563-.625-.128-.126-.263-.239-.406-.344-.352-.408-.594-.656-.594-.656-.128-.126-.263-.239-.406-.344-.34-.394-.594-.656-.594-.656-.128-.126-.263-.239-.406-.344-.34-.394-.594-.656-.594-.656-.128-.126-.263-.239-.406-.344-.34-.394-.563-.656-.563-.656-.129-.128-.293-.238-.438-.344-.339-.393-.563-.656-.563-.656-.112-.11-.252-.187-.375-.281-.367-.428-.625-.688-.625-.688-.128-.126-.263-.239-.406-.344-.352-.408-.594-.656-.594-.656-.128-.126-.263-.239-.406-.344-.34-.394-.594-.656-.594-.656-.128-.126-.263-.239-.406-.344-.34-.394-.594-.656-.594-.656-.128-.126-.263-.239-.406-.344-.34-.394-.563-.656-.563-.656-.129-.128-.293-.238-.438-.344-.34-.394-.563-.656-.563-.656-.112-.11-.252-.187-.375-.281-.367-.428-.625-.688-.625-.688v-.031c-.137-.135-.283-.233-.438-.344-.338-.391-.563-.625-.563-.625-.106-.105-.226-.191-.344-.281-.375-.437-.656-.719-.656-.719-.128-.126-.263-.239-.406-.344-.34-.394-.594-.656-.594-.656-.128-.126-.263-.239-.406-.344-.34-.394-.594-.656-.594-.656-.128-.126-.263-.239-.406-.344-.34-.394-.563-.656-.563-.656-.112-.11-.252-.187-.375-.281-.367-.428-.625-.719-.625-.719-.137-.135-.283-.233-.438-.344-.339-.393-.563-.625-.563-.625-.106-.105-.226-.191-.344-.281-.375-.437-.656-.719-.656-.719-.128-.126-.263-.239-.406-.344-.34-.394-.594-.656-.594-.656-.128-.126-.263-.239-.406-.344-.34-.394-.594-.656-.594-.656-.128-.126-.263-.239-.406-.344-.34-.394-.563-.656-.563-.656-.112-.11-.252-.187-.375-.281-.367-.428-.625-.719-.625-.719-.112-.11-.252-.187-.375-.281-.367-.428-.625-.688-.625-.688-.128-.126-.263-.239-.406-.344-.352-.408-.594-.656-.594-.656-.128-.126-.263-.239-.406-.344-.34-.394-.594-.656-.594-.656-.128-.126-.263-.239-.406-.344-.34-.394-.594-.656-.594-.656-.128-.126-.263-.239-.406-.344-.34-.394-.563-.656-.563-.656-.129-.128-.293-.238-.438-.344-.34-.394-.563-.656-.563-.656-.112-.11-.252-.187-.375-.281-.367-.428-.625-.688-.625-.688-.128-.126-.263-.239-.406-.344-.352-.408-.594-.656-.594-.656-.128-.126-.263-.239-.406-.344-.34-.394-.594-.656-.594-.656-.128-.126-.263-.239-.406-.344-.34-.394-.594-.656-.594-.656-.128-.126-.263-.239-.406-.344-.34-.394-.563-.656-.563-.656h-.031c-.128-.126-.263-.239-.406-.344-.34-.394-.563-.656-.563-.656-.112-.11-.252-.187-.375-.281-.367-.428-.625-.719-.625-.719-.137-.135-.283-.233-.438-.344-.339-.393-.563-.625-.563-.625-.106-.105-.226-.191-.344-.281-.375-.437-.656-.719-.656-.719-.128-.126-.263-.239-.406-.344-.34-.394-.594-.656-.594-.656-.128-.126-.263-.239-.406-.344-.34-.394-.594-.656-.594-.656-.702-.694-1.638-1.084-2.625-1.063" fill-opacity=".235"/><g fill-rule="evenodd" transform="translate(0 -540.36)"><path d="m256 541.36c-140.83 0-255 114.17-255 255s114.17 255 255 255 255-114.17 255-255-114.17-255-255-255m8.827 44.931c120.9 0 218.9 98 218.9 218.9s-98 218.9-218.9 218.9-218.93-98-218.93-218.9 98.03-218.9 218.93-218.9" fill-opacity=".067"/><g fill-opacity=".129"><path d="m256 544.79c-138.94 0-251.57 112.63-251.57 251.57s112.63 251.54 251.57 251.54 251.57-112.6 251.57-251.54-112.63-251.57-251.57-251.57m5.885 38.556c120.9 0 218.9 98 218.9 218.9s-98 218.9-218.9 218.9-218.93-98-218.93-218.9 98.03-218.9 218.93-218.9"/><path d="m256 548.72c-136.77 0-247.64 110.87-247.64 247.64s110.87 247.64 247.64 247.64 247.64-110.87 247.64-247.64-110.87-247.64-247.64-247.64m2.942 31.691c120.9 0 218.9 98 218.9 218.9s-98 218.9-218.9 218.9-218.93-98-218.93-218.9 98.03-218.9 218.93-218.9"/></g><path d="m253.04 548.22c-135.42 0-245.19 109.78-245.19 245.19 0 135.42 109.78 245.19 245.19 245.19 135.42 0 245.19-109.78 245.19-245.19 0-135.42-109.78-245.19-245.19-245.19zm0 26.297c120.9 0 218.9 98 218.9 218.9s-98 218.9-218.9 218.9-218.93-98-218.93-218.9 98.03-218.9 218.93-218.9z" fill="#fff" stroke="#000" stroke-opacity=".31" stroke-width="4.904"/></g><text x="729.64001" y="231.36"><tspan x="729.64001" y="231.36"/></text><text transform="scale(4.0128 .2492)" x="378.91" y="579.26001"/><text x="1310.91" y="151.36"><tspan x="1310.91" y="151.36"/></text><text transform="scale(4.0128 .2492)" x="523.76001" y="258.22"/><text x="239.33" y="-29.9"><tspan x="239.33" y="-29.9"/></text><text transform="scale(4.0128 .2492)" x="256.72" y="-469.13"/><text x="1337.38" y="-246.37"><tspan x="1337.38" y="-246.37"/></text><text transform="scale(4.0128 .2492)" x="530.35999" y="-1337.8"/><text x="1918.65" y="-326.37"><tspan x="1918.65" y="-326.37"/></text><text transform="scale(4.0128 .2492)" x="675.21002" y="-1658.83"/><text x="1529.53" y="-798.77002"><tspan x="1529.53" y="-798.77002"/></text><text transform="scale(4.0128 .2492)" x="578.23999" y="-3554.48"/><text x="2110.79" y="-878.78003"><tspan x="2110.79" y="-878.78003"/></text><text transform="scale(4.0128 .2492)" x="723.09003" y="-3875.52"/><text x="277.98999" y="535.94"><tspan x="277.98999" y="535.94"/></text><path d="m289.47 73.798a3.6443 3.6443 0 0 0 -3.4785 4.5301c3.338 13.147 2.067 23.577-1.968 32.763-4.04 9.186-10.98 17.16-19.28 24.673-16.6 15.03-38.489 27.797-50.667 46.08-8.61 12.927-6.399 27.17 1.834 40.636 8.233 13.465 22.19 27.01 38.13 41.39a3.6443 3.6443 0 0 0 5.7975-4.1796c-6.646-15.02-20.1-28.04-24.916-41.796-2.407-6.88-2.891-13.734.297-21.68 3.187-7.946 10.285-17.1 23.567-27.585 34.444-27.19 43.55-50.4 43.31-67.14-.244-16.746-9.977-26.642-9.977-26.642a3.6443 3.6443 0 0 0 -2.6426-1.0516m41.769 68.357a3.6443 3.6443 0 0 0 -.0809.027 3.6443 3.6443 0 0 0 -.56627.10786s-29.06 7.166-51.665 22.759c-11.301 7.797-21.21 17.827-24.592 30.659-3.383 12.832.314 27.923 14.507 44.28 7.225 8.318 6.074 15.04 3.398 20.682-2.677 5.646-7.227 9.411-7.227 9.411a3.6443 3.6443 0 0 0 3.9908 6.0672s.593-.376.647-.404c1-.523 10.494-5.514 18.525-14.265 4.231-4.61 7.995-10.254 9.384-16.88 1.388-6.627.135-14.166-5.069-21.491-4.444-6.246-8.485-11.597-10.84-16.395-2.355-4.797-3.146-8.763-1.672-13.51 2.948-9.494 17.03-23.17 53.34-44.22a3.6443 3.6443 0 0 0 -2.0763-6.8222m20.547 112.74c-4.454.009-9.158.809-13.914 2.481-4.821 1.712-7.227 5.636-7.227 5.636a3.6443 3.6443 0 0 0 4.4492 5.3121s1.812-.76 6.579-1.753c8.04-1.675 18.508 4.01 20.06 13.13.777 4.559-.407 10.301-5.744 17.18-5.337 6.876-14.859 14.704-30.25 22.705a3.6443 3.6443 0 0 0 -1.6988 1.8336c-.024.038-.048.044-.081.081-.023.026-.031.057-.054.081-.045.048-.103.104-.135.135a3.6443 3.6443 0 0 0 -.0539.027 3.6443 3.6443 0 0 0 -1.2134 2.7235s2.332 1.054 4.126 1.861l.431 1.672c38.12-10.02 54.51-27.27 55.872-43.576 1.357-16.302-13.03-29.562-31.14-29.527m-135.96 3.182c-7.08.007-27.669 1.159-51.935 12.889-2.359 1.141-4.192 2.273-5.636 3.667-1.443 1.394-2.63 3.357-2.508 5.609s1.478 3.98 2.939 5.15c1.461 1.171 3.21 2.024 5.258 2.804 8.193 3.123 21.852 5.01 38.668 5.986 33.633 1.956 79.04-.156 110.64-8.467a3.6443 3.6443 0 0 0 1.1325-.51233c5.945-4.06 14.696-7.874 14.696-7.874a3.6443 3.6443 0 0 0 -2.0763-6.93s-25.16 4.474-50.13 6.579c-30.648 2.568-63.838 3.02-79.74.89-4.381-.585-7.232-1.318-8.872-1.941 1.301-.866 3.37-1.906 5.797-2.912 9.8-4.064 24.97-7.712 24.97-7.712a3.6443 3.6443 0 0 0 -.59322-7.1727s-.985-.056-2.616-.054m-12.161 38.048a3.6443 3.6443 0 0 0 -.78199.18875c-7.323 2.431-12.463 4.87-15.936 7.712-1.736 1.421-3.081 2.983-3.883 4.854s-.891 4.103-.216 5.986c1.35 3.766 4.687 6.02 8.898 7.982 4.211 1.957 9.598 3.508 16.02 4.746 25.677 4.95 67.854 4.47 108.13-7.308a3.6443 3.6443 0 0 0 .18876-6.93c-7.567-2.668-12.404-7.55-12.404-7.55a3.6443 3.6443 0 0 0 -3.2898-1.0247c-38.475 7.409-60.22 7.194-88.39 4.287-5.15-.533-7.816-1.669-8.602-2.265-.197-.149-.33-.236-.404-.27.036-.019.08-.064.108-.162.126-.44.881-1.558 1.672-2.373s1.456-1.294 1.456-1.294a3.6443 3.6443 0 0 0 -2.1842-6.5795 3.6443 3.6443 0 0 0 -.3775 0m8.1435 36.646a3.6443 3.6443 0 0 0 -.0809.027 3.6443 3.6443 0 0 0 -.64716.13482c-6.716 1.877-11.468 3.969-14.696 6.687s-4.861 6.966-3.586 10.57 4.333 6.05 8.224 8.224 8.831 4.01 14.669 5.501c23.352 5.945 60.953 6.336 94.67-8.116a3.6443 3.6443 0 0 0 -.10786-6.7413c-10.406-4.047-17.797-8.683-17.797-8.683a3.6443 3.6443 0 0 0 -2.6156-.48537c-29.08 5.504-41.912 5.92-68.28 2.912-5.05-.581-7.901-1.487-9.09-2.103.134-.173.087-.116.297-.297.582-.502 1.106-.809 1.106-.809a3.6443 3.6443 0 0 0 -2.0763-6.8222m-34.27 24.322c-12.496-.024-30 5.32-40.42 12.134-2.605 1.703-4.804 3.482-6.364 5.663-1.56 2.18-2.47 5.218-1.429 8.04 1.041 2.818 3.447 4.715 6.606 6.175s7.286 2.565 12.755 3.452c67.27 10.91 128.51 8.487 168.88 1.294 20.19-3.596 35.04-8.207 43.47-13.59 4.214-2.691 7.482-5.86 7.388-10.301-.047-2.22-1.14-4.296-2.67-5.851-1.529-1.555-3.496-2.757-5.932-3.856a3.6443 3.6443 0 0 0 -3.829 6.1211s.94 1.182.917 1.699c-.012.259.021.722-1.321 1.834-1.343 1.112-4.074 2.622-8.764 4.045-18 5.453-57.5 9.307-96.1 9.788-19.303.24-38.457-.344-54.766-1.861s-29.871-4.084-37.4-7.361c-.279-.121-.154-.106-.351-.216.549-.459 1.252-1.043 2.238-1.564 4.418-2.335 11.798-4.557 14.939-5.231a3.6443 3.6443 0 0 0 .027 0c6.979-1.513 10.489-1.213 10.489-1.213a3.6443 3.6443 0 0 0 2.3729-6.6064c-2.974-2.095-6.637-2.581-10.732-2.589m201.78 19.9a3.6443 3.6443 0 0 0 -3.1549 2.1572c-.077.116-.257.377-.647.782-.81.839-2.458 2.246-5.582 3.991-6.248 3.49-18.37 8.263-40.933 12.512-50.897 9.578-114.3 8.486-151.38 2.373l-.162.971a3.6443 3.6443 0 0 0 -1.7258 5.42c-.296.019-.947.051-.944.054.017.014.03.036.054.054.048.036.096.088.162.135.132.094.305.195.512.324.415.257.996.573 1.78.944 1.568.742 3.969 1.697 7.577 2.697 7.216 1.999 19.261 4.245 39.26 5.528 30.397 1.946 68.791 1.429 100.15-3.209 15.679-2.319 29.573-5.651 40.04-10.409 10.471-4.758 18.12-11.334 18.822-20.413a3.6443 3.6443 0 0 0 -3.829-3.9099" fill="#fff" stroke="#fff"/></svg>